<svg width="282" height="282" viewBox="0 0 282 282" fill="none" xmlns="http://www.w3.org/2000/svg">
<path d="M269.934 233.807C277.186 229.15 282 221.014 282 211.775C282 197.35 270.263 185.613 255.838 185.613H238.731C251.536 176.941 259.969 162.278 259.969 145.682C259.969 119.108 238.349 97.4883 211.775 97.4883H206.938C214.838 85.7831 219.128 72.0097 219.214 57.5847C219.231 54.7025 218.12 51.9943 216.085 49.9597C214.066 47.9411 211.385 46.8318 208.528 46.8318H208.461C205.466 46.8495 202.487 47.0576 199.539 47.4426C199.132 38.0524 197.125 28.8648 193.541 20.0672C192.359 17.1634 190.115 14.9047 187.224 13.7067C184.333 12.5088 181.149 12.5198 178.26 13.737C172.969 15.9655 167.958 18.7277 163.294 21.9613C159.547 15.2401 154.922 9.05484 149.476 3.54373C147.218 1.25854 144.207 0 141 0C137.793 0 134.782 1.25854 132.523 3.54483C127.078 9.05539 122.452 15.2407 118.705 21.9624C114.041 18.7282 109.03 15.966 103.74 13.7376C100.851 12.5204 97.6673 12.5099 94.7762 13.7073C91.8846 14.9052 89.6413 17.1634 88.4588 20.0677C84.8765 28.8626 82.8672 38.0518 82.4597 47.4426C79.513 47.0576 76.5344 46.85 73.5398 46.8324H73.4731C70.6162 46.8324 67.9345 47.9417 65.9158 49.9603C63.8813 51.9943 62.7703 54.7025 62.7874 57.5847C62.8728 72.0102 67.1634 85.7836 75.0627 97.4888H48.1934C33.7678 97.4883 22.0312 109.225 22.0312 123.65C22.0312 132.889 26.8456 141.025 34.0972 145.682C26.8456 150.338 22.0312 158.474 22.0312 167.713C22.0312 176.099 26.0013 183.569 32.1557 188.361C13.4429 194.984 0 212.853 0 233.807C0 260.381 21.6193 282 48.1934 282H255.838C270.263 282 282 270.263 282 255.838C282 246.599 277.186 238.463 269.934 233.807ZM208.511 55.0935H208.526C209.177 55.0935 209.786 55.3447 210.243 55.8013C210.704 56.2623 210.956 56.8781 210.952 57.5352C210.852 74.4926 204.194 90.4339 192.205 102.423C185.2 109.428 176.918 114.59 167.884 117.706C174.004 111.138 177.758 102.339 177.758 92.675C177.758 84.4028 174.696 75.9103 170.334 68.0044C181.273 59.7432 194.703 55.1756 208.511 55.0935ZM139.301 45.6785C139.753 45.2202 140.357 44.9685 141 44.9685C141.643 44.9685 142.247 45.2202 142.699 45.6785C150.756 53.8416 169.496 74.7625 169.496 92.6756C169.496 108.388 156.713 121.172 141 121.172C125.287 121.172 112.504 108.388 112.504 92.6756C112.504 74.7619 131.244 53.8416 139.301 45.6785ZM181.467 21.3516C182.305 20.998 183.227 20.9941 184.063 21.34C184.898 21.6859 185.547 22.3408 185.891 23.184C189.266 31.4705 191.088 40.1409 191.329 48.9997C182.218 51.281 173.596 55.3221 166.003 60.9214C161.585 54.3169 156.574 48.3718 152.178 43.6356C159.862 33.8863 169.924 26.2133 181.467 21.3516ZM138.4 9.35172C139.094 8.64892 140.018 8.26172 141 8.26172C141.982 8.26172 142.906 8.64892 143.6 9.35172C148.811 14.6249 153.201 20.5722 156.684 27.0626C152.829 30.3635 149.29 34.0289 146.103 38.0056C144.557 37.159 142.815 36.7068 141 36.7068C139.185 36.7068 137.444 37.159 135.897 38.0056C132.71 34.0289 129.17 30.364 125.316 27.0632C128.799 20.5722 133.189 14.6243 138.4 9.35172ZM96.1097 23.184C96.4534 22.3413 97.1022 21.6859 97.9377 21.34C98.7727 20.9936 99.6947 20.998 100.534 21.3516C112.075 26.2128 122.139 33.8863 129.824 43.6351C125.427 48.3707 120.416 54.3164 115.998 60.9208C108.405 55.321 99.7828 51.2805 90.6729 48.9991C90.9142 40.1398 92.7356 31.4683 96.1097 23.184ZM71.7569 55.8013C72.214 55.3447 72.8232 55.0935 73.4742 55.0935H73.4896C87.2972 55.1751 100.726 59.7432 111.666 68.0055C107.304 75.9109 104.242 84.4034 104.242 92.675C104.242 102.276 107.946 111.026 113.996 117.58C104.97 114.431 96.6583 109.287 89.795 102.423C77.8061 90.4339 71.1483 74.4926 71.048 57.5346C71.0442 56.8786 71.2959 56.2623 71.7569 55.8013ZM255.838 273.738H48.1934C26.1748 273.738 8.26172 255.825 8.26172 233.807C8.26172 211.788 26.1748 193.875 48.1934 193.875H69.9894C72.2708 193.875 74.1203 192.026 74.1203 189.744C74.1203 187.462 72.2708 185.613 69.9894 185.613H48.1934C38.3234 185.613 30.293 177.583 30.293 167.713C30.293 157.842 38.3234 149.812 48.1934 149.812H211.775C214.057 149.812 215.906 147.964 215.906 145.682C215.906 143.4 214.057 141.551 211.775 141.551H48.1934C38.3234 141.551 30.293 133.521 30.293 123.65C30.293 113.78 38.3234 105.75 48.1934 105.75H81.5547C82.3319 106.604 83.1311 107.444 83.9534 108.265C97.4883 121.8 116.005 129.434 135.105 129.432H146.896C165.991 129.432 184.517 121.795 198.047 108.265C198.869 107.443 199.668 106.604 200.446 105.75H211.775C233.794 105.75 251.707 123.663 251.707 145.682C251.707 167.7 233.794 185.613 211.775 185.613H86.5129C84.2315 185.613 82.382 187.462 82.382 189.744C82.382 192.026 84.2315 193.875 86.5129 193.875H255.838C265.708 193.875 273.738 201.905 273.738 211.775C273.738 221.646 265.708 229.676 255.838 229.676H220.037C217.756 229.676 215.906 231.525 215.906 233.807C215.906 236.089 217.756 237.938 220.037 237.938H255.838C265.708 237.938 273.738 245.967 273.738 255.838C273.738 265.708 265.708 273.738 255.838 273.738Z" fill="#003445"/>
</svg>
