<svg width="282" height="282" viewBox="0 0 282 282" fill="none" xmlns="http://www.w3.org/2000/svg">
<path d="M277.869 211.775C277.869 199.608 268.005 189.744 255.838 189.744H48.1934C23.8582 189.744 4.13086 209.471 4.13086 233.807C4.13086 258.142 23.8582 277.869 48.1934 277.869H255.838C268.005 277.869 277.869 268.005 277.869 255.838C277.869 243.671 268.005 233.807 255.838 233.807C268.005 233.807 277.869 223.943 277.869 211.775Z" fill="#B8F2FF"/>
<path d="M257.215 232.939H78.2396C53.6973 232.939 33.7172 213.459 32.8871 189.119C13.9017 194.551 4.40625 212.022 4.40625 232.752C4.40625 257.822 20.3227 278.145 45.3921 278.145H254.346C266.882 278.145 277.043 267.983 277.043 255.449C277.043 243.886 268.395 234.35 257.215 232.939Z" fill="#A0D6F5"/>
<path d="M26.1621 123.65C26.1621 111.483 36.0261 101.619 48.1934 101.619H211.775C236.111 101.619 255.838 121.346 255.838 145.682C255.838 170.017 236.111 189.744 211.775 189.744H48.1934C36.0261 189.744 26.1621 179.88 26.1621 167.713C26.1621 155.546 36.0261 145.682 48.1934 145.682C36.0261 145.682 26.1621 135.818 26.1621 123.65Z" fill="#F5F5FC"/>
<path d="M189.744 167.713C189.744 155.546 199.608 145.682 211.775 145.682H48.1934C36.0261 145.682 26.1621 155.546 26.1621 167.713C26.1621 179.88 36.0261 189.744 48.1934 189.744H211.775C199.608 189.744 189.744 179.88 189.744 167.713Z" fill="#EBEBF5"/>
<path d="M112.099 63.3212C112.099 88.2032 123.332 110.458 141 125.303C158.668 110.458 169.901 88.2032 169.901 63.3212C169.901 41.1495 160.982 21.0636 146.539 6.44803C143.485 3.35814 138.515 3.35814 135.462 6.44803C121.018 21.0636 112.099 41.1495 112.099 63.3212Z" fill="#73FFFF"/>
<path d="M92.4573 80.82C101.625 102.952 119.816 118.609 141 125.303C151.246 105.59 153.038 81.6555 143.871 59.5234C135.702 39.8022 120.368 25.223 102.136 17.544C98.2818 15.9209 93.8613 17.7516 92.2833 21.6253C84.8219 39.947 84.2881 61.0987 92.4573 80.82Z" fill="#98EDFF"/>
<path d="M143.871 59.523C139.929 50.0055 134.314 41.6904 127.514 34.7654C127.475 34.8061 127.435 34.8463 127.395 34.8871C119.451 42.9985 107.656 45.9352 96.8071 42.5892C93.6875 41.627 90.5018 40.8554 87.2643 40.2804C85.4026 53.5729 86.9487 67.5209 92.457 80.819C101.625 102.952 119.816 118.608 141 125.302C151.246 105.589 153.039 81.655 143.871 59.523Z" fill="#8FE4FF"/>
<path d="M189.542 80.82C180.375 102.952 162.184 118.609 141 125.303C130.754 105.59 128.961 81.6555 138.129 59.5234C146.298 39.8022 161.632 25.223 179.864 17.544C183.718 15.9209 188.139 17.7516 189.716 21.6253C197.178 39.947 197.712 61.0987 189.542 80.82Z" fill="#98EDFF"/>
<path d="M154.486 34.7666C147.686 41.691 142.071 50.0067 138.129 59.5242C128.962 81.6563 130.754 105.59 140.999 125.303C162.184 118.609 180.375 102.953 189.542 80.8207C195.05 67.5227 196.596 53.5752 194.735 40.2821C191.497 40.8571 188.312 41.6288 185.192 42.591C174.343 45.937 162.548 43.0002 154.605 34.8889C154.566 34.8476 154.526 34.8068 154.486 34.7666Z" fill="#8FE4FF"/>
<path d="M86.8742 105.344C101.693 120.163 121.637 126.727 141 125.046C142.682 105.683 136.117 85.7388 121.299 70.92C108.094 57.7156 90.82 51.0655 73.5139 50.963C69.8551 50.9415 66.8952 53.9014 66.9172 57.5597C67.0197 74.8658 73.6698 92.14 86.8742 105.344Z" fill="#CAFFFF"/>
<path d="M160.702 70.9198C145.883 85.7385 139.319 105.683 141 125.046C160.363 126.727 180.307 120.163 195.126 105.344C208.33 92.1397 214.98 74.8656 215.083 57.5595C215.104 53.9006 212.144 50.9407 208.486 50.9628C191.18 51.0652 173.905 57.7153 160.702 70.9198Z" fill="#CAFFFF"/>
<path d="M141 125.045C153.475 126.129 166.188 123.784 177.619 118.02C182.617 110.82 185.552 102.085 185.552 92.6754C185.552 81.461 180.871 70.1556 174.713 60.1353C169.706 63.0406 164.988 66.6323 160.702 70.9196C145.883 85.7383 139.319 105.683 141 125.045Z" fill="#98EDFF"/>
<path d="M141 125.045C142.681 105.683 136.117 85.7383 121.298 70.9196C117.011 66.6323 112.293 63.0406 107.287 60.1353C101.129 70.1556 96.4478 81.4604 96.4478 92.6754C96.4478 102.085 99.3823 110.82 104.381 118.02C115.812 123.784 128.526 126.129 141 125.045Z" fill="#98EDFF"/>
<path d="M141 125.303C159.019 125.303 173.627 110.695 173.627 92.6758C173.627 73.4194 154.647 51.9031 145.639 42.7767C143.087 40.1913 138.913 40.1913 136.361 42.7767C127.353 51.9031 108.373 73.4194 108.373 92.6758C108.373 110.695 122.981 125.303 141 125.303Z" fill="#CAFFFF"/>
<path d="M269.934 233.807C277.186 229.15 282 221.014 282 211.775C282 197.35 270.263 185.613 255.838 185.613H238.731C251.536 176.941 259.969 162.278 259.969 145.682C259.969 119.108 238.349 97.4883 211.775 97.4883H206.938C214.838 85.7831 219.128 72.0097 219.214 57.5847C219.231 54.7025 218.12 51.9943 216.085 49.9597C214.066 47.9411 211.385 46.8318 208.528 46.8318H208.461C205.466 46.8495 202.487 47.0576 199.539 47.4426C199.132 38.0524 197.125 28.8648 193.541 20.0672C192.359 17.1634 190.115 14.9047 187.224 13.7067C184.333 12.5088 181.149 12.5198 178.26 13.737C172.969 15.9655 167.958 18.7277 163.294 21.9613C159.547 15.2401 154.922 9.05484 149.476 3.54373C147.218 1.25854 144.207 0 141 0C137.793 0 134.782 1.25854 132.523 3.54483C127.078 9.05539 122.452 15.2407 118.705 21.9624C114.041 18.7282 109.03 15.966 103.74 13.7376C100.851 12.5204 97.6673 12.5099 94.7762 13.7073C91.8846 14.9052 89.6413 17.1634 88.4588 20.0677C84.8765 28.8626 82.8672 38.0518 82.4597 47.4426C79.513 47.0576 76.5344 46.85 73.5398 46.8324H73.4731C70.6162 46.8324 67.9345 47.9417 65.9158 49.9603C63.8813 51.9943 62.7703 54.7025 62.7874 57.5847C62.8728 72.0102 67.1634 85.7836 75.0627 97.4888H48.1934C33.7678 97.4883 22.0312 109.225 22.0312 123.65C22.0312 132.889 26.8456 141.025 34.0972 145.682C26.8456 150.338 22.0312 158.474 22.0312 167.713C22.0312 176.099 26.0013 183.569 32.1557 188.361C13.4429 194.984 0 212.853 0 233.807C0 260.381 21.6193 282 48.1934 282H255.838C270.263 282 282 270.263 282 255.838C282 246.599 277.186 238.463 269.934 233.807ZM208.511 55.0935H208.526C209.177 55.0935 209.786 55.3447 210.243 55.8013C210.704 56.2623 210.956 56.8781 210.952 57.5352C210.852 74.4926 204.194 90.4339 192.205 102.423C185.2 109.428 176.918 114.59 167.884 117.706C174.004 111.138 177.758 102.339 177.758 92.675C177.758 84.4028 174.696 75.9103 170.334 68.0044C181.273 59.7432 194.703 55.1756 208.511 55.0935ZM139.301 45.6785C139.753 45.2202 140.357 44.9685 141 44.9685C141.643 44.9685 142.247 45.2202 142.699 45.6785C150.756 53.8416 169.496 74.7625 169.496 92.6756C169.496 108.388 156.713 121.172 141 121.172C125.287 121.172 112.504 108.388 112.504 92.6756C112.504 74.7619 131.244 53.8416 139.301 45.6785ZM181.467 21.3516C182.305 20.998 183.227 20.9941 184.063 21.34C184.898 21.6859 185.547 22.3408 185.891 23.184C189.266 31.4705 191.088 40.1409 191.329 48.9997C182.218 51.281 173.596 55.3221 166.003 60.9214C161.585 54.3169 156.574 48.3718 152.178 43.6356C159.862 33.8863 169.924 26.2133 181.467 21.3516ZM138.4 9.35172C139.094 8.64892 140.018 8.26172 141 8.26172C141.982 8.26172 142.906 8.64892 143.6 9.35172C148.811 14.6249 153.201 20.5722 156.684 27.0626C152.829 30.3635 149.29 34.0289 146.103 38.0056C144.557 37.159 142.815 36.7068 141 36.7068C139.185 36.7068 137.444 37.159 135.897 38.0056C132.71 34.0289 129.17 30.364 125.316 27.0632C128.799 20.5722 133.189 14.6243 138.4 9.35172ZM96.1097 23.184C96.4534 22.3413 97.1022 21.6859 97.9377 21.34C98.7727 20.9936 99.6947 20.998 100.534 21.3516C112.075 26.2128 122.139 33.8863 129.824 43.6351C125.427 48.3707 120.416 54.3164 115.998 60.9208C108.405 55.321 99.7828 51.2805 90.6729 48.9991C90.9142 40.1398 92.7356 31.4683 96.1097 23.184ZM71.7569 55.8013C72.214 55.3447 72.8232 55.0935 73.4742 55.0935H73.4896C87.2972 55.1751 100.726 59.7432 111.666 68.0055C107.304 75.9109 104.242 84.4034 104.242 92.675C104.242 102.276 107.946 111.026 113.996 117.58C104.97 114.431 96.6583 109.287 89.795 102.423C77.8061 90.4339 71.1483 74.4926 71.048 57.5346C71.0442 56.8786 71.2959 56.2623 71.7569 55.8013ZM255.838 273.738H48.1934C26.1748 273.738 8.26172 255.825 8.26172 233.807C8.26172 211.788 26.1748 193.875 48.1934 193.875H69.9894C72.2708 193.875 74.1203 192.026 74.1203 189.744C74.1203 187.462 72.2708 185.613 69.9894 185.613H48.1934C38.3234 185.613 30.293 177.583 30.293 167.713C30.293 157.842 38.3234 149.812 48.1934 149.812H211.775C214.057 149.812 215.906 147.964 215.906 145.682C215.906 143.4 214.057 141.551 211.775 141.551H48.1934C38.3234 141.551 30.293 133.521 30.293 123.65C30.293 113.78 38.3234 105.75 48.1934 105.75H81.5547C82.3319 106.604 83.1311 107.444 83.9534 108.265C97.4883 121.8 116.005 129.434 135.105 129.432H146.896C165.991 129.432 184.517 121.795 198.047 108.265C198.869 107.443 199.668 106.604 200.446 105.75H211.775C233.794 105.75 251.707 123.663 251.707 145.682C251.707 167.7 233.794 185.613 211.775 185.613H86.5129C84.2315 185.613 82.382 187.462 82.382 189.744C82.382 192.026 84.2315 193.875 86.5129 193.875H255.838C265.708 193.875 273.738 201.905 273.738 211.775C273.738 221.646 265.708 229.676 255.838 229.676H220.037C217.756 229.676 215.906 231.525 215.906 233.807C215.906 236.089 217.756 237.938 220.037 237.938H255.838C265.708 237.938 273.738 245.967 273.738 255.838C273.738 265.708 265.708 273.738 255.838 273.738Z" fill="#003445"/>
<path d="M203.514 229.676H48.1934C45.912 229.676 44.0625 231.525 44.0625 233.807C44.0625 236.089 45.912 237.938 48.1934 237.938H203.514C205.795 237.938 207.645 236.089 207.645 233.807C207.645 231.525 205.795 229.676 203.514 229.676Z" fill="#003445"/>
</svg>
