<svg width="195" height="635" viewBox="0 0 195 635" fill="none" xmlns="http://www.w3.org/2000/svg">
<path d="M108.655 170.583L148.501 581.87L0.0667725 454.756L59.2856 145.27L108.655 170.583Z" fill="#0E9995"/>
<path d="M78.2005 246.324C78.2005 246.324 46.5906 440.542 46.5906 489.496C46.5906 538.449 49.7515 590.548 70.2731 634.768C70.2731 634.768 95.5361 624.503 107.381 613.448C119.227 602.393 136.596 578.711 148.441 581.838L120.866 267.619L78.2005 246.324Z" fill="#00A7CC"/>
<path d="M125.831 24.8221C125.829 29.7295 124.373 34.5262 121.645 38.6057C118.918 42.6852 115.042 45.8644 110.507 47.7412C105.973 49.618 100.984 50.1082 96.1712 49.1498C91.3583 48.1914 86.9377 45.8275 83.4682 42.3569C79.9988 38.8863 77.6364 34.4649 76.6796 29.6517C75.7228 24.8385 76.2146 19.8497 78.093 15.316C79.9713 10.7824 83.1518 6.9075 87.2322 4.18129C91.3127 1.45508 96.1099 2.75747e-07 101.017 0C104.277 -1.83142e-07 107.504 0.642084 110.515 1.88962C113.526 3.13715 116.262 4.96568 118.566 7.27074C120.87 9.5758 122.698 12.3122 123.945 15.3237C125.191 18.3352 125.832 21.5628 125.831 24.8221Z" fill="#697494"/>
<path d="M103.573 21.3962C94.7056 21.3962 86.6368 23.8918 80.6143 28.051C81.472 33.7427 84.2817 38.9591 88.5623 42.8071C92.843 46.6551 98.3282 48.8953 104.079 49.144C109.829 49.3927 115.488 47.6345 120.085 44.1704C124.681 40.7064 127.931 35.7519 129.277 30.1555C123.121 24.8234 113.88 21.3962 103.573 21.3962Z" fill="#555E78"/>
<path d="M99.3561 182.53C52.4403 182.53 14.2754 146.636 14.2754 102.507C14.2754 58.3774 52.4403 22.4917 99.3561 22.4917C146.272 22.4917 184.437 58.3857 184.437 102.507C184.437 146.627 146.272 182.53 99.3561 182.53ZM99.3561 31.9082C56.8074 31.9082 22.1862 63.5764 22.1862 102.507C22.1862 141.437 56.8074 173.113 99.3561 173.113C141.905 173.113 176.526 141.445 176.526 102.507C176.526 63.5681 141.905 31.9082 99.3561 31.9082Z" fill="#FBB03B"/>
<path d="M151.803 154.255C147.037 158.295 141.8 161.744 136.206 164.528L138.103 173.737C144.197 170.8 149.922 167.151 155.156 162.865L151.803 154.255Z" fill="#D68F20"/>
<path d="M114.952 24.8243C114.952 27.58 114.135 30.2739 112.604 32.5652C111.073 34.8565 108.897 36.6424 106.351 37.697C103.805 38.7516 101.003 39.0275 98.3004 38.4898C95.5976 37.9522 93.1149 36.6252 91.1663 34.6766C89.2177 32.728 87.8907 30.2454 87.353 27.5426C86.8154 24.8398 87.0914 22.0382 88.146 19.4922C89.2006 16.9463 90.9863 14.7701 93.2777 13.2391C95.569 11.7081 98.263 10.8909 101.019 10.8909C104.714 10.8909 108.258 12.3589 110.871 14.9719C113.484 17.5849 114.952 21.1289 114.952 24.8243Z" fill="#9EB3C2"/>
<path d="M100.937 12.7527C98.3329 12.8858 94.2819 13.5846 93.0923 19.6321C91.9028 25.6796 93.3336 32.5423 98.1666 31.8186C103 31.0949 98.283 18.4259 103.158 17.6773C108.032 16.9286 104.405 12.5781 100.937 12.7527Z" fill="#B1CFD9"/>
<path d="M19.141 86.1602C19.0279 86.157 18.9158 86.1375 18.8083 86.102C18.5448 86.0146 18.3268 85.8262 18.2021 85.5782C18.0773 85.3303 18.0561 85.0429 18.1429 84.7793C28.5159 53.5104 47.0909 39.0281 60.8329 32.4482C60.9569 32.3882 61.0915 32.353 61.229 32.345C61.3666 32.3369 61.5043 32.356 61.6345 32.4012C61.7646 32.4464 61.8847 32.5168 61.9877 32.6084C62.0906 32.6999 62.1745 32.8108 62.2346 32.9348C62.2947 33.0588 62.3297 33.1934 62.3378 33.3309C62.3458 33.4685 62.3267 33.6063 62.2815 33.7364C62.2363 33.8666 62.1659 33.9866 62.0744 34.0896C61.9828 34.1925 61.8719 34.2764 61.7479 34.3365C48.3636 40.775 30.2794 54.8663 20.1559 85.4365C20.0853 85.6491 19.949 85.8339 19.7666 85.964C19.5841 86.0941 19.3651 86.1627 19.141 86.1602Z" fill="#FBE6C4"/>
<path d="M75.6307 29.3829C75.3713 29.3864 75.1197 29.2936 74.9248 29.1224C74.7298 28.9512 74.6053 28.7138 74.5753 28.4561C74.5453 28.1984 74.6119 27.9387 74.7623 27.7273C74.9127 27.5159 75.1361 27.3678 75.3894 27.3116C78.2004 26.624 81.0684 26.1952 83.9574 26.0305C84.0967 26.0237 84.2357 26.0455 84.3663 26.0944C84.4968 26.1433 84.6159 26.2182 84.7164 26.3148C84.8169 26.4114 84.8966 26.5275 84.9506 26.656C85.0046 26.7845 85.0318 26.9227 85.0305 27.0621C85.0338 27.1997 85.0099 27.3367 84.9603 27.4651C84.9107 27.5935 84.8363 27.7109 84.7413 27.8106C84.6462 27.9102 84.5325 27.9902 84.4066 28.0458C84.2806 28.1015 84.145 28.1319 84.0073 28.1351C81.2615 28.2976 78.5359 28.7068 75.8636 29.3579C75.787 29.3744 75.709 29.3828 75.6307 29.3829Z" fill="#FBE6C4"/>
<path d="M72.1783 143.949L5.85565 522.919L66.9128 556.6L194.293 472.384L122.18 141.844L72.1783 143.949Z" fill="#0085AF"/>
<path d="M183.68 423.746L64.128 512.113C56.5666 507.954 30.9875 494.062 12.6205 484.28L11.6222 489.994C26.77 498.08 47.3332 509.226 63.03 517.786L64.5689 518.618L184.961 429.611L183.68 423.746Z" fill="#00779E"/>
<path d="M58.3189 485.041L178.354 399.361L177.081 393.513L58.1359 478.403L18.1077 452.89L17.0846 458.763L58.3189 485.041Z" fill="#00779E"/>
<path d="M60.1752 608.004C76.8121 593.738 106.659 569.84 127.554 563.276C133.918 561.28 140.281 559.483 146.362 557.894L145.871 552.329C139.433 553.993 132.678 555.898 125.907 558.019C104.637 564.674 75.6309 587.508 58.4534 602.165C59.0135 604.122 59.5874 606.069 60.1752 608.004Z" fill="#00779E"/>
<path d="M53.4128 580.144C73.6681 563.291 108.073 537.329 143.31 522.855L142.802 517.032C107.466 531.099 73.3187 556.395 52.2898 573.772C52.6392 575.918 53.0135 578.039 53.4128 580.144Z" fill="#00779E"/>
<path d="M182.448 356.853C182.448 356.853 36.3849 391.565 0.0667725 454.785L45.818 145.34C45.818 145.34 55.6837 133.894 63.1869 137.446C70.6901 140.998 71.8713 141.131 82.1362 134.027C92.4011 126.924 100.686 125.343 115.293 130.866C129.9 136.39 130.558 132.971 140.032 134.552C149.507 136.132 182.448 290.538 182.448 356.853Z" fill="#BCE6F4"/>
<path d="M18.0174 333.42C54.8763 313.871 112.165 287.893 174.495 276.023C174.223 274.209 173.946 272.396 173.663 270.582C112.623 282.178 56.3736 307.183 19.0322 326.69L18.0174 333.42Z" fill="#00779E"/>
<path d="M14.2822 358.677C51.5486 338.604 112.015 310.63 177.731 298.676C177.498 296.863 177.248 295.041 176.999 293.211C112.597 304.857 53.204 331.783 15.2887 351.905L14.2822 358.677Z" fill="#00779E"/>
<path opacity="0.18" d="M97.0838 135.117C97.0838 135.117 81.936 137.871 74.6241 149.342C67.3122 160.813 75.09 354.457 89.772 353.542C104.454 352.627 112.223 135.117 97.0838 135.117Z" fill="white"/>
<path opacity="0.18" d="M58.5352 147.043C56.0621 147.94 53.8689 149.472 52.1764 151.486C50.4839 153.499 49.3519 155.924 48.8941 158.514C47.0641 167.664 34.6696 377.862 42.0148 375.1C49.36 372.339 66.7953 148.881 58.5352 147.043Z" fill="white"/>
<path opacity="0.18" d="M41.0927 437.515C41.0927 437.515 19.5314 497.166 22.2848 506.808C25.0382 516.449 50.7337 543.974 68.6266 543.051C86.5195 542.127 171.875 465.964 178.297 456.789C184.718 447.614 167.749 370.061 167.749 370.061C167.749 370.061 44.3119 415.03 41.0927 437.515Z" fill="white"/>
<path opacity="0.18" d="M64.9574 570.587C64.9574 570.587 72.7601 618.31 77.8094 618.31C82.8587 618.31 109.469 582.541 124.151 580.686C138.833 578.831 137.461 549.018 137.003 540.757C136.546 532.497 70.4642 554.524 64.9574 570.587Z" fill="white"/>
</svg>
