<svg width="313" height="313" viewBox="0 0 313 313" fill="none" xmlns="http://www.w3.org/2000/svg">
<g opacity="0.25" clip-path="url(#clip0)">
<path fill-rule="evenodd" clip-rule="evenodd" d="M18.6119 4.59229H275.458C282.962 4.59229 289.115 10.7441 289.115 18.2481V39.1996C289.115 46.7036 282.962 52.8554 275.458 52.8554H18.6119C11.1085 52.8554 4.95605 46.7036 4.95605 39.1996V18.2481C4.95605 10.727 11.0907 4.59229 18.6119 4.59229Z" fill="#EFA473"/>
<path fill-rule="evenodd" clip-rule="evenodd" d="M274.28 4.59229H275.458C282.962 4.59229 289.115 10.7441 289.115 18.2481V39.1996C289.115 46.7036 282.962 52.8554 275.458 52.8554H18.6119C11.1085 52.8554 4.95605 46.7036 4.95605 39.1996V38.0215H256.482C266.274 38.0215 274.28 30.015 274.28 20.2233V4.59229H274.28Z" fill="#DD956C"/>
<path fill-rule="evenodd" clip-rule="evenodd" d="M47.293 28.7153H60.3424C62.9589 28.7153 65.0912 30.8642 65.0912 33.4641V72.907C57.5694 72.907 50.0489 72.907 42.5448 72.907V33.4641C42.5442 30.8642 44.6765 28.7153 47.293 28.7153Z" fill="#FFEFD6"/>
<path fill-rule="evenodd" clip-rule="evenodd" d="M135.762 72.9069L148.153 66.8242L158.308 72.9069V100.496H135.762V72.9069Z" fill="#0C5E7F"/>
<path fill-rule="evenodd" clip-rule="evenodd" d="M140.511 28.7153H153.56C156.177 28.7153 158.309 30.8642 158.309 33.4641V72.907C150.788 72.907 143.284 72.907 135.763 72.907V33.4641C135.762 30.8642 137.894 28.7153 140.511 28.7153Z" fill="#FFEFD6"/>
<path fill-rule="evenodd" clip-rule="evenodd" d="M228.98 72.9072L240.746 67.5691L251.526 72.9072V101.086H228.98V72.9072Z" fill="#0C5E7F"/>
<path fill-rule="evenodd" clip-rule="evenodd" d="M233.728 28.7153H246.778C249.395 28.7153 251.527 30.8642 251.527 33.4641V72.907C244.005 72.907 236.501 72.907 228.98 72.907V33.4641C228.98 30.8642 231.111 28.7153 233.728 28.7153Z" fill="#FFEFD6"/>
<path fill-rule="evenodd" clip-rule="evenodd" d="M65.0912 72.907V90.254C65.0912 92.8705 62.9595 95.0028 60.3424 95.0028H47.293C44.6765 95.0028 42.5448 92.8711 42.5448 90.254C42.5448 84.4831 42.5448 78.695 42.5448 72.907H65.0912Z" fill="#0C5E7F"/>
<path fill-rule="evenodd" clip-rule="evenodd" d="M87.585 225.705L135.762 95.0024H158.308L206.486 225.705L147.026 293.205L87.585 225.705Z" fill="#CBE2FF"/>
<path fill-rule="evenodd" clip-rule="evenodd" d="M150.579 275.216C148.431 277.123 145.796 277.279 143.474 275.216L87.5856 225.705L80.861 243.901C79.7521 246.916 80.6361 249.619 82.7849 251.508L143.474 305.283C145.779 307.311 148.309 307.311 150.579 305.283L211.286 251.508C213.349 249.689 214.389 247.141 213.209 243.901L206.485 225.705L150.579 275.216Z" fill="#9DC6FB"/>
<path fill-rule="evenodd" clip-rule="evenodd" d="M147.962 109.837L191.703 228.477C192.829 231.528 193.505 234.352 193.748 236.986L206.485 225.705L158.308 95.0024H142.502L147.962 109.837Z" fill="#BED8FB"/>
<path fill-rule="evenodd" clip-rule="evenodd" d="M206.486 225.705L193.748 236.986C193.835 238.043 193.869 239.083 193.817 240.088C193.575 245.044 191.512 249.204 187.613 252.67L165.413 272.339L147.026 288.612L144.774 290.622L135.848 298.525L143.474 305.283C145.779 307.311 148.309 307.311 150.579 305.283L211.285 251.508C213.348 249.689 214.388 247.141 213.209 243.901L206.486 225.705Z" fill="#80B4FB"/>
<path fill-rule="evenodd" clip-rule="evenodd" d="M180.802 225.705L228.98 95.0024H251.526L299.703 225.705L240.244 293.205L180.802 225.705Z" fill="#FAF8F9"/>
<path fill-rule="evenodd" clip-rule="evenodd" d="M243.814 275.216C241.648 277.123 239.014 277.279 236.692 275.216L180.803 225.705L174.079 243.901C172.987 246.916 173.854 249.619 176.003 251.508L236.692 305.283C238.997 307.311 241.527 307.311 243.814 305.283L304.504 251.508C306.566 249.689 307.606 247.141 306.427 243.901L299.703 225.705L243.814 275.216Z" fill="#E0DBEE"/>
<path fill-rule="evenodd" clip-rule="evenodd" d="M241.18 109.837L284.92 228.477C286.047 231.528 286.723 234.352 286.965 236.986L299.703 225.705L251.525 95.0024H235.721L241.18 109.837Z" fill="#EDE9FB"/>
<path fill-rule="evenodd" clip-rule="evenodd" d="M299.703 225.705L286.965 236.986C287.069 238.043 287.086 239.083 287.035 240.088C286.792 245.044 284.729 249.204 280.83 252.67L258.631 272.339L240.244 288.612L237.991 290.622L229.066 298.525L236.691 305.283C238.996 307.311 241.526 307.311 243.814 305.283L304.503 251.508C306.565 249.689 307.605 247.141 306.426 243.901L299.703 225.705Z" fill="#D3CEE5"/>
<path d="M157.424 9.16748C154.894 9.16748 152.832 7.12258 152.832 4.59291C152.832 2.06201 154.894 0 157.424 0H275.458C280.484 0 285.042 2.06201 288.352 5.35462C291.645 8.66435 293.707 13.2224 293.707 18.2481V39.1996C293.707 44.2253 291.645 48.7834 288.352 52.0931C285.042 55.3857 280.484 57.4483 275.458 57.4483H256.118V94.2051L266.395 122.089C267.261 124.463 266.049 127.08 263.674 127.964C261.3 128.83 258.666 127.617 257.799 125.243L248.337 99.5945H232.168L186.175 224.353L240.244 272.253L294.331 224.353L264.974 144.722C264.108 142.347 265.321 139.731 267.695 138.847C270.069 137.98 272.703 139.211 273.569 141.585L312.353 246.795C313.064 248.719 312.388 250.816 310.846 251.994L243.276 311.851C241.526 313.411 238.91 313.359 237.211 311.834L193.643 273.24L150.058 311.851C148.308 313.411 145.691 313.359 143.993 311.834L76.1984 251.786C74.7948 250.539 74.2746 248.563 74.9158 246.795L131.168 94.2051V57.4483H69.6829V95.0022C69.6829 97.5325 67.6203 99.5945 65.0906 99.5945H42.5442C40.0139 99.5945 37.9519 97.5325 37.9519 95.0022V57.4483H18.6119C13.5862 57.4483 9.02812 55.3863 5.71839 52.0931C2.42578 48.7834 0.36377 44.2253 0.36377 39.1996V18.2481C0.36377 13.2224 2.40866 8.66435 5.71839 5.35462C9.02812 2.04489 13.5862 0 18.6119 0H136.646C139.176 0 141.238 2.06201 141.238 4.5923C141.238 7.12258 139.176 9.16687 136.646 9.16687H18.6119C16.1165 9.16687 13.846 10.1896 12.1997 11.8359C10.5534 13.4822 9.53125 15.7527 9.53125 18.2481V39.1996C9.53125 41.695 10.5534 43.9484 12.1997 45.5941C13.846 47.2581 16.1165 48.2803 18.6119 48.2803H37.9525V28.7153C37.9525 26.185 40.0145 24.1401 42.5448 24.1401H65.0912C67.6209 24.1401 69.6835 26.185 69.6835 28.7153V48.2803H131.17V28.7153C131.17 26.185 133.233 24.1401 135.763 24.1401H158.309C160.839 24.1401 162.901 26.185 162.901 28.7153V48.2803H224.388V28.7153C224.388 26.185 226.451 24.1401 228.98 24.1401H251.527C254.057 24.1401 256.119 26.185 256.119 28.7153V48.2803H275.459C277.937 48.2803 280.208 47.2581 281.854 45.5941C283.518 43.9478 284.54 41.695 284.54 39.1996V18.2481C284.54 15.7527 283.518 13.4822 281.854 11.8359C280.208 10.1896 277.955 9.16687 275.459 9.16687H157.424V9.16748ZM182.778 233.555L177.821 247.02C198.635 265.459 219.448 283.898 240.243 302.337L302.683 247.02L297.727 233.555L243.276 281.784C241.526 283.344 238.91 283.292 237.211 281.767L182.778 233.555ZM176.678 258.215L150.06 281.784C148.309 283.344 145.692 283.292 143.994 281.767L89.5608 233.555L84.6048 247.021L147.027 302.338L186.747 267.141L176.678 258.215ZM92.9574 224.353L147.026 272.253L169.781 252.115L169.417 251.786C168.013 250.539 167.493 248.563 168.152 246.795L188.757 190.854L171.687 144.549C170.82 142.174 172.034 139.54 174.408 138.674C176.782 137.807 179.416 139.02 180.283 141.394L193.644 177.614L224.387 94.2051V57.4483H162.901V94.2051L173.108 121.898C173.974 124.273 172.761 126.907 170.388 127.773C168.013 128.64 165.379 127.426 164.513 125.052L155.12 99.5945H138.951L92.9574 224.353ZM246.95 77.4993H233.554V90.427H246.95V77.4993ZM153.733 77.4993H140.337V90.427H153.733V77.4993ZM60.4983 77.4993H47.1194V90.427H60.4983V77.4993ZM246.95 33.3076H233.554V68.3312H246.95V33.3076ZM153.733 33.3076H140.337V68.3312H153.733V33.3076ZM60.4983 33.3076H47.1194V68.3312H60.4983C60.4983 56.6512 60.4983 44.9883 60.4983 33.3076Z" fill="#003445"/>
</g>
<defs>
<clipPath id="clip0">
<rect width="313" height="313" fill="white"/>
</clipPath>
</defs>
</svg>
