<svg width="638" height="725" viewBox="0 0 638 725" fill="none" xmlns="http://www.w3.org/2000/svg">
<path opacity="0.3" fill-rule="evenodd" clip-rule="evenodd" d="M73.5116 725H45.0537L21.6615 701.608C18.0241 689.038 14.8447 676.364 12.1235 663.612L73.5116 725ZM128.867 725H100.41L6.14667 630.737C4.52766 619.985 3.22846 609.195 2.2491 598.382L128.867 725ZM184.223 725H155.765L0.400776 569.635C0.0349054 560.038 -0.0803764 550.434 0.0548312 540.832L184.223 725ZM239.578 725H211.121L1.02949 514.909C1.5649 506.154 2.30929 497.41 3.26253 488.684L239.578 725ZM294.934 725H266.476L6.38484 464.908C7.62651 456.821 9.0493 448.756 10.6533 440.72L294.934 725ZM350.29 725H321.832L15.5226 418.691C17.3501 411.161 19.3391 403.662 21.4893 396.2L350.29 725ZM405.645 725H377.188L27.8475 375.66C30.1811 368.615 32.6613 361.607 35.2881 354.643L405.645 725ZM461.001 725H432.543L42.96 335.417C45.7445 328.806 48.6643 322.239 51.7196 315.719L461.001 725ZM516.356 725H487.899L60.5813 297.682C63.7775 291.47 67.1001 285.305 70.5491 279.193L516.356 725ZM571.712 725H543.254L80.5124 262.258C84.0919 256.417 87.7908 250.629 91.6091 244.897L571.712 725ZM627.067 725H598.61L102.61 228.999C106.552 223.512 110.608 218.081 114.778 212.71L627.067 725ZM637.611 680.188V708.646L126.77 197.804C131.061 192.657 135.46 187.57 139.969 182.546L637.611 680.188ZM637.611 624.833V653.29L152.921 168.6C155.476 165.941 158.064 163.302 160.683 160.683C162.817 158.549 164.964 156.436 167.124 154.345L637.611 624.833ZM637.611 569.477V597.935L181.02 141.343C186.026 136.817 191.095 132.4 196.225 128.091L637.611 569.477ZM637.611 514.122V542.579L211.08 116.048C216.433 111.86 221.845 107.786 227.315 103.825L637.611 514.122ZM637.611 458.766V487.224L243.159 92.7716C248.872 88.9345 254.641 85.2165 260.463 81.6176L637.611 458.766ZM637.611 403.411V431.868L277.342 71.5986C283.434 68.1297 289.578 64.7868 295.77 61.5699L637.611 403.411ZM637.611 348.056V376.513L313.747 52.6485C320.244 49.5719 326.79 46.6302 333.379 43.8232L637.611 348.056ZM637.611 292.699V321.157L352.54 36.0864C359.48 33.436 366.464 30.9316 373.485 28.5731L637.611 292.699ZM637.611 237.344V265.801L393.952 22.1422C401.387 19.9655 408.858 17.9493 416.361 16.0935L637.611 237.344ZM637.611 181.989V210.446L438.306 11.1408C446.31 9.506 454.343 8.05107 462.399 6.77612L637.611 181.989ZM637.611 126.633V155.09L486.075 3.55405C494.761 2.56333 503.466 1.77974 512.182 1.20329L637.611 126.633ZM637.611 71.2776V99.735L537.979 0.102539C547.528 -0.0813313 557.082 -0.0173369 566.628 0.294544L637.611 71.2776ZM637.611 15.9222V44.3796L595.203 1.97069C605.94 2.88051 616.656 4.10547 627.335 5.6455L637.611 15.9222Z" fill="url(#paint0_linear)"/>
<defs>
<linearGradient id="paint0_linear" x1="932.931" y1="938.122" x2="151.982" y2="157.172" gradientUnits="userSpaceOnUse">
<stop stop-color="#4EDCDC"/>
<stop offset="1" stop-color="white" stop-opacity="0"/>
</linearGradient>
</defs>
</svg>
