<svg width="634" height="584" viewBox="0 0 634 584" fill="none" xmlns="http://www.w3.org/2000/svg">
<path opacity="0.3" fill-rule="evenodd" clip-rule="evenodd" d="M426.994 0H408.116L633.346 225.23C633.436 218.861 633.359 212.489 633.117 206.123L426.994 0ZM371.395 0H390.273L632.7 242.427C632.345 248.234 631.851 254.035 631.218 259.823L371.395 0ZM334.674 0H353.552L629.147 275.595C628.323 280.96 627.38 286.31 626.316 291.641L334.674 0ZM297.953 0H316.831L623.085 306.255C621.873 311.25 620.554 316.224 619.127 321.175L297.953 0ZM261.232 0H280.109L614.909 334.8C613.361 339.473 611.716 344.122 609.974 348.742L261.232 0ZM224.511 0H243.388L604.884 361.496C603.037 365.881 601.1 370.238 599.074 374.563L224.511 0ZM187.79 0H206.667L593.195 386.528C591.075 390.649 588.871 394.738 586.583 398.793L187.79 0ZM151.068 0H169.946L579.973 410.027C577.599 413.901 575.145 417.741 572.612 421.544L151.068 0ZM114.347 0H133.225L565.315 432.09C562.7 435.73 560.009 439.332 557.243 442.895L114.347 0ZM77.6265 0H96.5041L549.288 452.783C546.441 456.198 543.523 459.573 540.532 462.905L77.6265 0ZM40.9055 0H59.7831L531.94 472.157C530.245 473.92 528.529 475.671 526.791 477.408C525.375 478.824 523.951 480.225 522.518 481.613L40.9055 0ZM4.18446 0H23.0621L513.3 490.238C509.979 493.24 506.616 496.171 503.213 499.029L4.18446 0ZM0 32.5365V13.6589L493.359 507.018C489.808 509.796 486.218 512.499 482.59 515.126L0 32.5365ZM0 69.2575V50.3799L472.079 522.459C468.289 525.004 464.462 527.47 460.6 529.858L0 69.2575ZM0 105.978V87.1009L449.403 536.504C445.362 538.805 441.286 541.023 437.178 543.157L0 105.978ZM0 142.699V123.822L425.253 549.075C420.943 551.116 416.601 553.067 412.23 554.929L0 142.699ZM0 179.421V160.543L399.519 560.062C394.915 561.82 390.283 563.481 385.625 565.046L0 179.421ZM0 216.142V197.264L372.048 569.312C367.116 570.756 362.16 572.093 357.183 573.324L0 216.142ZM0 252.863V233.985L342.625 576.61C337.315 577.694 331.987 578.659 326.642 579.505L0 252.863ZM0 289.584V270.706L310.936 581.643C305.175 582.3 299.4 582.82 293.618 583.202L0 289.584ZM0 326.305V307.427L276.505 583.932C270.17 584.054 263.833 584.012 257.5 583.805L0 326.305ZM0 363.026V344.148L238.545 582.693C231.422 582.089 224.314 581.277 217.23 580.255L0 363.026ZM0 399.747V380.869L195.6 576.469C187.229 574.742 178.907 572.719 170.652 570.398L0 399.747ZM0 436.468V417.59L144.308 561.898C133.25 557.857 122.348 553.263 111.646 548.114L0 436.468ZM-1.14796e-07 464.699L0 454.311L70.7247 525.036C49.9883 511.493 30.33 495.617 12.1211 477.408C7.95885 473.246 3.91847 469.008 -1.14796e-07 464.699ZM555.001 0H559.356C563.246 5.11157 566.983 10.3025 570.567 15.5667L555.001 0ZM518.279 0H537.157L595.661 58.5042C601.072 69.4258 605.901 80.5627 610.148 91.8684L518.279 0ZM481.558 0H500.436L619.013 118.577C621.426 126.915 623.535 135.323 625.34 143.782L481.558 0ZM444.837 0L631.891 187.054C631.241 179.88 630.379 172.722 629.305 165.59L463.715 0H444.837Z" fill="url(#paint0_linear)"/>
<defs>
<linearGradient id="paint0_linear" x1="14.5061" y1="-38.3195" x2="532.563" y2="479.737" gradientUnits="userSpaceOnUse">
<stop stop-color="#4EDCDC"/>
<stop offset="1" stop-color="white" stop-opacity="0"/>
</linearGradient>
</defs>
</svg>
