<svg width="597" height="684" viewBox="0 0 597 684" fill="none" xmlns="http://www.w3.org/2000/svg">
<g opacity="0.3">
<path d="M-100.513 511.736C-86.3903 533.359 -69.8351 553.859 -50.847 572.847C-31.859 591.835 -11.3594 608.39 10.2644 622.513L-100.513 511.736Z" fill="url(#paint0_linear)"/>
<path d="M52.9372 646.579L-124.579 469.063C-129.948 457.903 -134.739 446.535 -138.952 435.004L86.9965 660.952C75.465 656.739 64.0969 651.948 52.9372 646.579Z" fill="url(#paint1_linear)"/>
<path d="M114.468 669.816C123.077 672.236 131.754 674.346 140.483 676.146L-154.146 381.517C-152.346 390.246 -150.236 398.923 -147.816 407.532L114.468 669.816Z" fill="url(#paint2_linear)"/>
<path d="M-158.095 358.961L163.039 680.095C170.426 681.16 177.839 682.008 185.266 682.637L-160.637 336.734C-160.008 344.162 -159.16 351.574 -158.095 358.961Z" fill="url(#paint3_linear)"/>
<path d="M-161.796 316.968L205.032 683.796C211.636 684.012 218.245 684.056 224.851 683.929L-161.929 297.149C-162.056 303.755 -162.012 310.364 -161.796 316.968Z" fill="url(#paint4_linear)"/>
<path d="M-161.168 279.304L242.696 683.168C248.726 682.769 254.747 682.227 260.756 681.542L-159.542 261.245C-160.227 267.253 -160.769 273.274 -161.168 279.304Z" fill="url(#paint5_linear)"/>
<path d="M-157.313 244.866L277.134 679.313C282.706 678.431 288.263 677.424 293.8 676.294L-154.294 228.2C-155.424 233.737 -156.431 239.294 -157.313 244.866Z" fill="url(#paint6_linear)"/>
<path d="M-150.867 213.019L308.981 672.867C314.171 671.584 319.339 670.189 324.482 668.683L-146.683 197.518C-148.189 202.661 -149.584 207.829 -150.867 213.019Z" fill="url(#paint7_linear)"/>
<path d="M-142.235 183.36L338.64 664.235C343.497 662.603 348.328 660.871 353.129 659.037L-137.037 168.871C-138.871 173.672 -140.603 178.503 -142.235 183.36Z" fill="url(#paint8_linear)"/>
<path d="M-131.685 155.616L366.384 653.685C370.942 651.744 375.47 649.709 379.964 647.58L-125.58 142.036C-127.709 146.53 -129.744 151.058 -131.685 155.616Z" fill="url(#paint9_linear)"/>
<path d="M-119.409 129.6L392.4 641.409C396.683 639.184 400.934 636.871 405.148 634.471L-112.472 116.852C-114.871 121.066 -117.184 125.317 -119.409 129.6Z" fill="url(#paint10_linear)"/>
<path d="M-105.541 105.176L416.824 627.541C420.851 625.051 424.842 622.479 428.794 619.825L-97.8251 93.2064C-100.479 97.1582 -103.051 101.149 -105.541 105.176Z" fill="url(#paint11_linear)"/>
<path d="M-90.1787 82.2458L439.754 612.179C443.538 609.439 447.282 606.62 450.985 603.724L-81.7236 71.0155C-84.6204 74.7183 -87.4388 78.4625 -90.1787 82.2458Z" fill="url(#paint12_linear)"/>
<path d="M-73.3926 60.7396L461.26 595.393C464.809 592.412 468.316 589.356 471.779 586.225L-64.2255 50.2212C-67.3564 53.6842 -70.4121 57.191 -73.3926 60.7396Z" fill="url(#paint13_linear)"/>
<path d="M-55.2312 40.6085L481.392 577.231C482.886 575.785 484.371 574.323 485.847 572.847C487.659 571.035 489.449 569.21 491.216 567.37L-45.3705 30.7838C-47.2095 32.5514 -49.0352 34.3411 -50.847 36.153C-52.3231 37.6291 -53.7845 39.1143 -55.2312 40.6085Z" fill="url(#paint14_linear)"/>
<path d="M-35.7235 21.8239L500.176 557.723C503.295 554.248 506.338 550.729 509.306 547.168L-25.1683 12.6936C-28.729 15.6617 -32.2481 18.7051 -35.7235 21.8239Z" fill="url(#paint15_linear)"/>
<path d="M-14.8571 4.39786L517.602 536.857C520.487 533.142 523.292 529.385 526.019 525.589L-3.58888 -4.01931C-7.38475 -1.29217 -11.1416 1.51355 -14.8571 4.39786Z" fill="url(#paint16_linear)"/>
<path d="M7.40831 -11.629L533.629 514.592C536.27 510.626 538.829 506.622 541.305 502.582L19.418 -19.3053C15.3776 -16.8291 11.3736 -14.2704 7.40831 -11.629Z" fill="url(#paint17_linear)"/>
<path d="M31.1328 -26.1974L548.197 490.867C550.583 486.639 552.882 482.375 555.093 478.077L43.923 -33.0927C39.6253 -30.8817 35.3611 -28.5833 31.1328 -26.1974Z" fill="url(#paint18_linear)"/>
<path d="M56.3997 -39.2228L561.223 465.6C563.336 461.09 565.356 456.547 567.282 451.974L70.0257 -45.2823C65.4527 -43.3561 60.9097 -41.3363 56.3997 -39.2228Z" fill="url(#paint19_linear)"/>
<path d="M83.3257 -50.5893L572.589 438.674C574.406 433.857 576.122 429.009 577.736 424.136L97.864 -55.7363C92.9905 -54.1221 88.1433 -52.4064 83.3257 -50.5893Z" fill="url(#paint20_linear)"/>
<path d="M112.073 -60.1347L582.135 409.927C583.622 404.765 584.998 399.578 586.262 394.369L127.631 -64.2622C122.422 -62.998 117.235 -61.6222 112.073 -60.1347Z" fill="url(#paint21_linear)"/>
<path d="M142.87 -67.6306L589.631 379.13C590.74 373.571 591.724 367.992 592.583 362.398L159.602 -70.5833C154.008 -69.7244 148.428 -68.7401 142.87 -67.6306Z" fill="url(#paint22_linear)"/>
<path d="M176.049 -72.7432L594.743 345.951C595.403 339.915 595.918 333.866 596.288 327.81L194.19 -74.2879C188.134 -73.9175 182.085 -73.4026 176.049 -72.7432Z" fill="url(#paint23_linear)"/>
<path d="M212.123 -74.9621L596.962 309.877C597.056 303.235 596.976 296.591 596.723 289.952L232.047 -74.7228C225.409 -74.9759 218.765 -75.0557 212.123 -74.9621Z" fill="url(#paint24_linear)"/>
<path d="M251.933 -73.4442L595.444 270.067C594.767 262.587 593.868 255.122 592.748 247.685L274.315 -70.7481C266.877 -71.868 259.413 -72.7667 251.933 -73.4442Z" fill="url(#paint25_linear)"/>
<path d="M297.056 -66.6135L588.614 224.944C586.731 216.122 584.532 207.355 582.016 198.66L323.34 -60.0157C314.645 -62.5319 305.877 -64.7311 297.056 -66.6135Z" fill="url(#paint26_linear)"/>
<path d="M351.191 -50.771L572.771 170.809C568.343 159.019 563.307 147.406 557.665 136.017L385.983 -35.6645C374.594 -41.3071 362.981 -46.3426 351.191 -50.771Z" fill="url(#paint27_linear)"/>
<path d="M430.758 -9.49652L531.497 91.2417C518.28 71.8286 503.064 53.3695 485.847 36.153C468.631 18.9365 450.171 3.72 430.758 -9.49652Z" fill="url(#paint28_linear)"/>
</g>
<defs>
<linearGradient id="paint0_linear" x1="-48.3599" y1="35.0495" x2="491.866" y2="575.275" gradientUnits="userSpaceOnUse">
<stop stop-color="#4EDCDC"/>
<stop offset="1" stop-color="white" stop-opacity="0"/>
</linearGradient>
<linearGradient id="paint1_linear" x1="-48.3599" y1="35.0495" x2="491.866" y2="575.275" gradientUnits="userSpaceOnUse">
<stop stop-color="#4EDCDC"/>
<stop offset="1" stop-color="white" stop-opacity="0"/>
</linearGradient>
<linearGradient id="paint2_linear" x1="-48.3599" y1="35.0495" x2="491.866" y2="575.275" gradientUnits="userSpaceOnUse">
<stop stop-color="#4EDCDC"/>
<stop offset="1" stop-color="white" stop-opacity="0"/>
</linearGradient>
<linearGradient id="paint3_linear" x1="-48.3599" y1="35.0495" x2="491.866" y2="575.275" gradientUnits="userSpaceOnUse">
<stop stop-color="#4EDCDC"/>
<stop offset="1" stop-color="white" stop-opacity="0"/>
</linearGradient>
<linearGradient id="paint4_linear" x1="-48.3599" y1="35.0495" x2="491.866" y2="575.275" gradientUnits="userSpaceOnUse">
<stop stop-color="#4EDCDC"/>
<stop offset="1" stop-color="white" stop-opacity="0"/>
</linearGradient>
<linearGradient id="paint5_linear" x1="-48.3599" y1="35.0495" x2="491.866" y2="575.275" gradientUnits="userSpaceOnUse">
<stop stop-color="#4EDCDC"/>
<stop offset="1" stop-color="white" stop-opacity="0"/>
</linearGradient>
<linearGradient id="paint6_linear" x1="-48.3599" y1="35.0495" x2="491.866" y2="575.275" gradientUnits="userSpaceOnUse">
<stop stop-color="#4EDCDC"/>
<stop offset="1" stop-color="white" stop-opacity="0"/>
</linearGradient>
<linearGradient id="paint7_linear" x1="-48.3599" y1="35.0495" x2="491.866" y2="575.275" gradientUnits="userSpaceOnUse">
<stop stop-color="#4EDCDC"/>
<stop offset="1" stop-color="white" stop-opacity="0"/>
</linearGradient>
<linearGradient id="paint8_linear" x1="-48.3599" y1="35.0495" x2="491.866" y2="575.275" gradientUnits="userSpaceOnUse">
<stop stop-color="#4EDCDC"/>
<stop offset="1" stop-color="white" stop-opacity="0"/>
</linearGradient>
<linearGradient id="paint9_linear" x1="-48.3599" y1="35.0495" x2="491.866" y2="575.275" gradientUnits="userSpaceOnUse">
<stop stop-color="#4EDCDC"/>
<stop offset="1" stop-color="white" stop-opacity="0"/>
</linearGradient>
<linearGradient id="paint10_linear" x1="-48.3599" y1="35.0495" x2="491.866" y2="575.275" gradientUnits="userSpaceOnUse">
<stop stop-color="#4EDCDC"/>
<stop offset="1" stop-color="white" stop-opacity="0"/>
</linearGradient>
<linearGradient id="paint11_linear" x1="-48.3599" y1="35.0495" x2="491.866" y2="575.275" gradientUnits="userSpaceOnUse">
<stop stop-color="#4EDCDC"/>
<stop offset="1" stop-color="white" stop-opacity="0"/>
</linearGradient>
<linearGradient id="paint12_linear" x1="-48.3599" y1="35.0495" x2="491.866" y2="575.275" gradientUnits="userSpaceOnUse">
<stop stop-color="#4EDCDC"/>
<stop offset="1" stop-color="white" stop-opacity="0"/>
</linearGradient>
<linearGradient id="paint13_linear" x1="-48.3599" y1="35.0495" x2="491.866" y2="575.275" gradientUnits="userSpaceOnUse">
<stop stop-color="#4EDCDC"/>
<stop offset="1" stop-color="white" stop-opacity="0"/>
</linearGradient>
<linearGradient id="paint14_linear" x1="-48.3599" y1="35.0495" x2="491.866" y2="575.275" gradientUnits="userSpaceOnUse">
<stop stop-color="#4EDCDC"/>
<stop offset="1" stop-color="white" stop-opacity="0"/>
</linearGradient>
<linearGradient id="paint15_linear" x1="-48.3599" y1="35.0495" x2="491.866" y2="575.275" gradientUnits="userSpaceOnUse">
<stop stop-color="#4EDCDC"/>
<stop offset="1" stop-color="white" stop-opacity="0"/>
</linearGradient>
<linearGradient id="paint16_linear" x1="-48.3599" y1="35.0495" x2="491.866" y2="575.275" gradientUnits="userSpaceOnUse">
<stop stop-color="#4EDCDC"/>
<stop offset="1" stop-color="white" stop-opacity="0"/>
</linearGradient>
<linearGradient id="paint17_linear" x1="-48.3599" y1="35.0495" x2="491.866" y2="575.275" gradientUnits="userSpaceOnUse">
<stop stop-color="#4EDCDC"/>
<stop offset="1" stop-color="white" stop-opacity="0"/>
</linearGradient>
<linearGradient id="paint18_linear" x1="-48.3599" y1="35.0495" x2="491.866" y2="575.275" gradientUnits="userSpaceOnUse">
<stop stop-color="#4EDCDC"/>
<stop offset="1" stop-color="white" stop-opacity="0"/>
</linearGradient>
<linearGradient id="paint19_linear" x1="-48.3599" y1="35.0495" x2="491.866" y2="575.275" gradientUnits="userSpaceOnUse">
<stop stop-color="#4EDCDC"/>
<stop offset="1" stop-color="white" stop-opacity="0"/>
</linearGradient>
<linearGradient id="paint20_linear" x1="-48.3599" y1="35.0495" x2="491.866" y2="575.275" gradientUnits="userSpaceOnUse">
<stop stop-color="#4EDCDC"/>
<stop offset="1" stop-color="white" stop-opacity="0"/>
</linearGradient>
<linearGradient id="paint21_linear" x1="-48.3599" y1="35.0495" x2="491.866" y2="575.275" gradientUnits="userSpaceOnUse">
<stop stop-color="#4EDCDC"/>
<stop offset="1" stop-color="white" stop-opacity="0"/>
</linearGradient>
<linearGradient id="paint22_linear" x1="-48.3599" y1="35.0495" x2="491.866" y2="575.275" gradientUnits="userSpaceOnUse">
<stop stop-color="#4EDCDC"/>
<stop offset="1" stop-color="white" stop-opacity="0"/>
</linearGradient>
<linearGradient id="paint23_linear" x1="-48.3599" y1="35.0495" x2="491.866" y2="575.275" gradientUnits="userSpaceOnUse">
<stop stop-color="#4EDCDC"/>
<stop offset="1" stop-color="white" stop-opacity="0"/>
</linearGradient>
<linearGradient id="paint24_linear" x1="-48.3599" y1="35.0495" x2="491.866" y2="575.275" gradientUnits="userSpaceOnUse">
<stop stop-color="#4EDCDC"/>
<stop offset="1" stop-color="white" stop-opacity="0"/>
</linearGradient>
<linearGradient id="paint25_linear" x1="-48.3599" y1="35.0495" x2="491.866" y2="575.275" gradientUnits="userSpaceOnUse">
<stop stop-color="#4EDCDC"/>
<stop offset="1" stop-color="white" stop-opacity="0"/>
</linearGradient>
<linearGradient id="paint26_linear" x1="-48.3599" y1="35.0495" x2="491.866" y2="575.275" gradientUnits="userSpaceOnUse">
<stop stop-color="#4EDCDC"/>
<stop offset="1" stop-color="white" stop-opacity="0"/>
</linearGradient>
<linearGradient id="paint27_linear" x1="-48.3599" y1="35.0495" x2="491.866" y2="575.275" gradientUnits="userSpaceOnUse">
<stop stop-color="#4EDCDC"/>
<stop offset="1" stop-color="white" stop-opacity="0"/>
</linearGradient>
<linearGradient id="paint28_linear" x1="-48.3599" y1="35.0495" x2="491.866" y2="575.275" gradientUnits="userSpaceOnUse">
<stop stop-color="#4EDCDC"/>
<stop offset="1" stop-color="white" stop-opacity="0"/>
</linearGradient>
</defs>
</svg>
