<svg width="80" height="80" viewBox="0 0 80 80" fill="none" xmlns="http://www.w3.org/2000/svg">
<g clip-path="url(#clip0)">
<path d="M70.1676 60.6238C70.8148 60.6238 71.3395 60.0991 71.3395 59.4519V31.327C71.3395 29.9282 70.7944 28.4974 69.8045 27.2982L61.1134 16.7679C60.6581 16.2162 60.1347 15.7512 59.5662 15.3809C59.6011 15.0228 59.6209 14.661 59.6209 14.2959V1.1709C59.6209 0.52371 59.0962 -0.000976562 58.4491 -0.000976562C57.8019 -0.000976562 57.2772 0.52371 57.2772 1.1709C57.2772 1.1709 57.2748 14.4076 57.2739 14.4635C56.9405 14.4045 56.602 14.374 56.2616 14.374H41.1053C40.0383 14.374 38.9923 14.6734 38.0559 15.2235C38.0155 15.2381 37.9753 15.2543 37.9359 15.2735L26.5123 20.8379C25.2467 21.4727 24.2347 22.5376 23.6623 23.8362C23.6561 23.8504 23.6501 23.8646 23.6445 23.879L18.9214 35.859C18.6841 36.4612 18.9797 37.1416 19.5819 37.3791C19.723 37.4348 19.8683 37.461 20.0114 37.461C20.4786 37.461 20.9201 37.1796 21.1019 36.7187L25.8158 24.7618C26.1703 23.9698 26.7901 23.3209 27.5509 22.939L33.5865 19.9992L27.5622 27.2984C26.6601 28.3912 26.1834 29.7845 26.1834 31.3273V71.796C26.1834 72.2672 26.2248 72.7286 26.3 73.1783L14.2247 67.8277C11.4969 66.6191 10.2606 63.4086 11.4694 60.6711C11.4745 60.6593 11.4795 60.6472 11.4845 60.6354L19.1225 41.6535C19.364 41.053 19.0733 40.3705 18.4728 40.1288C17.872 39.8873 17.1898 40.1782 16.9481 40.7785L9.31686 59.7427C7.60092 63.6568 9.37342 68.2414 13.2751 69.9702L27.4351 76.2446C27.4525 76.2522 27.4701 76.2578 27.4876 76.2646C28.9248 78.5102 31.4095 79.9988 34.2303 79.9988H63.1366C67.5831 79.9988 71.3397 76.2422 71.3397 71.7957V64.9207C71.3397 64.2735 70.815 63.7488 70.1678 63.7488C69.5206 63.7488 68.9959 64.2735 68.9959 64.9207V71.7957C68.9959 74.9717 66.3126 77.655 63.1366 77.655H34.2303C31.0856 77.655 28.5272 75.0266 28.5272 71.7957V31.327C28.5272 30.321 28.8106 29.4674 29.3698 28.7901L38.0609 18.2598C38.8698 17.2798 39.9795 16.7176 41.1053 16.7176H56.2616C56.4823 16.7176 56.7023 16.7399 56.9197 16.7821C56.1861 19.2838 54.3689 21.3713 51.915 22.4174C51.2733 21.3442 50.1001 20.6238 48.7614 20.6238C46.7367 20.6238 45.0895 22.271 45.0895 24.2957C45.0895 26.3204 46.7367 27.9676 48.7614 27.9676C50.6337 27.9676 52.1822 26.5585 52.4048 24.7452C55.5609 23.5515 57.9475 21.0221 59.0108 17.9348C59.1128 18.0374 59.2116 18.1454 59.3059 18.2598L67.997 28.7902C68.6411 29.5706 68.9959 30.4715 68.9959 31.3271V59.4521C68.9958 60.0991 69.5205 60.6238 70.1676 60.6238ZM48.7614 25.6238C48.029 25.6238 47.4333 25.0281 47.4333 24.2957C47.4333 23.5634 48.029 22.9676 48.7614 22.9676C49.4937 22.9676 50.0895 23.5634 50.0895 24.2957C50.0895 25.0281 49.4937 25.6238 48.7614 25.6238Z" fill="#003445"/>
<path d="M38.6047 62.342C38.9045 62.342 39.2045 62.2276 39.4333 61.9987L59.4333 41.9987C59.8909 41.5411 59.8909 40.799 59.4333 40.3415C58.9756 39.8839 58.2336 39.8839 57.7761 40.3415L37.7761 60.3415C37.0289 61.0379 37.6022 62.3775 38.6047 62.342Z" fill="#003445"/>
<path d="M41.1067 50C43.9067 50 46.1848 47.7219 46.1848 44.9219C46.1848 42.1219 43.9067 39.8438 41.1067 39.8438H40.9504C38.1504 39.8438 35.8723 42.1219 35.8723 44.9219C35.8723 47.7219 38.1504 50 40.9504 50H41.1067ZM38.2161 44.9219C38.2161 43.4142 39.4428 42.1875 40.9504 42.1875H41.1067C42.6143 42.1875 43.8411 43.4142 43.8411 44.9219C43.8411 46.4295 42.6143 47.6562 41.1067 47.6562H40.9504C39.4428 47.6562 38.2161 46.4295 38.2161 44.9219Z" fill="#003445"/>
<path d="M56.2629 62.3437H56.4192C59.2192 62.3437 61.4973 60.0656 61.4973 57.2656C61.4973 54.4656 59.2192 52.1875 56.4192 52.1875H56.2629C53.4629 52.1875 51.1848 54.4656 51.1848 57.2656C51.1848 60.0656 53.4629 62.3437 56.2629 62.3437ZM56.2629 54.5312H56.4192C57.9268 54.5312 59.1536 55.758 59.1536 57.2656C59.1536 58.7733 57.9268 60 56.4192 60H56.2629C54.7553 60 53.5286 58.7733 53.5286 57.2656C53.5286 55.758 54.7553 54.5312 56.2629 54.5312Z" fill="#003445"/>
</g>
<defs>
<clipPath id="clip0">
<rect width="80" height="80" fill="white"/>
</clipPath>
</defs>
</svg>
