<svg width="459" height="28" viewBox="0 0 459 28" fill="none" xmlns="http://www.w3.org/2000/svg">
<path d="M10.0547 0.320312C11.5651 0.320312 12.9453 0.528646 14.1953 0.945312C15.4453 1.36198 16.5 1.84375 17.3594 2.39062V7.74219C16.4219 7.16927 15.4193 6.63542 14.3516 6.14062C13.2839 5.64583 12.0729 5.39844 10.7188 5.39844C10.0417 5.39844 9.36458 5.5026 8.6875 5.71094C8.03646 5.91927 7.48958 6.23177 7.04688 6.64844C6.63021 7.0651 6.42188 7.59896 6.42188 8.25C6.42188 9.10938 6.79948 9.76042 7.55469 10.2031C8.3099 10.6458 9.23438 11.0885 10.3281 11.5312L13.5312 12.8594C15.3542 13.6406 16.6953 14.5911 17.5547 15.7109C18.4141 16.8307 18.8438 18.1068 18.8438 19.5391C18.8438 21.1016 18.388 22.4818 17.4766 23.6797C16.5911 24.8516 15.3932 25.776 13.8828 26.4531C12.3984 27.1302 10.7448 27.4688 8.92188 27.4688C7.38542 27.4688 5.91406 27.2083 4.50781 26.6875C3.10156 26.1667 1.8776 25.5286 0.835938 24.7734V19.4219C1.98177 20.2552 3.24479 20.9583 4.625 21.5312C6.00521 22.1042 7.47656 22.3906 9.03906 22.3906C10.1328 22.3906 11.0703 22.1823 11.8516 21.7656C12.6328 21.3229 13.0234 20.6719 13.0234 19.8125C13.0234 19.1354 12.6979 18.5885 12.0469 18.1719C11.4219 17.7292 10.7318 17.3646 9.97656 17.0781L5.95312 15.5156C3.92188 14.7344 2.54167 13.7188 1.8125 12.4688C1.10938 11.1927 0.757812 9.78646 0.757812 8.25C0.757812 6.66146 1.1875 5.28125 2.04688 4.10938C2.93229 2.91146 4.07812 1.98698 5.48438 1.33594C6.89062 0.658854 8.41406 0.320312 10.0547 0.320312ZM55.7375 0.828125C56.9615 0.828125 58.1594 0.997396 59.3312 1.33594C60.5031 1.67448 61.5578 2.19531 62.4953 2.89844C63.4589 3.60156 64.2141 4.48698 64.7609 5.55469C65.3339 6.59635 65.6203 7.84635 65.6203 9.30469C65.6203 10.8411 65.2297 12.1693 64.4484 13.2891C63.6932 14.3828 62.6906 15.2422 61.4406 15.8672C60.1906 16.4661 58.8365 16.8177 57.3781 16.9219L66.7922 27H59.6437L50.5422 16.2969V27H45.1125V0.828125H55.7375ZM50.5422 5.90625V12.5078C51.1672 12.7161 51.8573 12.8854 52.6125 13.0156C53.3937 13.1198 54.175 13.1719 54.9562 13.1719C56.5187 13.1719 57.7557 12.8594 58.6672 12.2344C59.6047 11.5833 60.0734 10.6719 60.0734 9.5C60.0734 8.22396 59.5786 7.3125 58.5891 6.76562C57.6255 6.19271 56.4406 5.90625 55.0344 5.90625H50.5422ZM143.822 0.828125V5.71094H135.462V26.8828H130.072V5.71094H121.712V0.828125H143.822ZM186.575 11.4531V15.8672H175.012V22.1953H188.098V27H169.583V0.828125H188.098V5.51562H175.012V11.4531H186.575ZM238.391 0.828125L228.859 13.875L238.391 27H231.555L225.227 17.9766L219.055 27H212.414L221.906 13.9922L212.414 0.828125H219.25L225.578 10.125L231.555 0.828125H238.391ZM282.784 0.828125V5.71094H274.425V26.8828H269.034V5.71094H260.675V0.828125H282.784ZM322.608 22.1172V27H308.35V22.1172H312.764V5.71094H308.35V0.828125H322.608V5.71094H318.194V22.1172H322.608ZM356.455 0.828125V22.1172H369.541V27H351.025V0.828125H356.455ZM413.7 11.4531V15.8672H402.137V22.1953H415.223V27H396.708V0.828125H415.223V5.51562H402.137V11.4531H413.7ZM450.203 0.320312C451.714 0.320312 453.094 0.528646 454.344 0.945312C455.594 1.36198 456.648 1.84375 457.508 2.39062V7.74219C456.57 7.16927 455.568 6.63542 454.5 6.14062C453.432 5.64583 452.221 5.39844 450.867 5.39844C450.19 5.39844 449.513 5.5026 448.836 5.71094C448.185 5.91927 447.638 6.23177 447.195 6.64844C446.779 7.0651 446.57 7.59896 446.57 8.25C446.57 9.10938 446.948 9.76042 447.703 10.2031C448.458 10.6458 449.383 11.0885 450.477 11.5312L453.68 12.8594C455.503 13.6406 456.844 14.5911 457.703 15.7109C458.562 16.8307 458.992 18.1068 458.992 19.5391C458.992 21.1016 458.536 22.4818 457.625 23.6797C456.74 24.8516 455.542 25.776 454.031 26.4531C452.547 27.1302 450.893 27.4688 449.07 27.4688C447.534 27.4688 446.062 27.2083 444.656 26.6875C443.25 26.1667 442.026 25.5286 440.984 24.7734V19.4219C442.13 20.2552 443.393 20.9583 444.773 21.5312C446.154 22.1042 447.625 22.3906 449.188 22.3906C450.281 22.3906 451.219 22.1823 452 21.7656C452.781 21.3229 453.172 20.6719 453.172 19.8125C453.172 19.1354 452.846 18.5885 452.195 18.1719C451.57 17.7292 450.88 17.3646 450.125 17.0781L446.102 15.5156C444.07 14.7344 442.69 13.7188 441.961 12.4688C441.258 11.1927 440.906 9.78646 440.906 8.25C440.906 6.66146 441.336 5.28125 442.195 4.10938C443.081 2.91146 444.227 1.98698 445.633 1.33594C447.039 0.658854 448.562 0.320312 450.203 0.320312Z" fill="white"/>
</svg>
