<svg width="240" height="80" viewBox="0 0 240 80" fill="none" xmlns="http://www.w3.org/2000/svg">
<g clip-path="url(#clip0)">
<path d="M104.698 60.6116C104.774 59.9688 104.314 59.3864 103.672 59.3106C103.029 59.2356 102.446 59.6947 102.371 60.3373L101.529 67.4806L96.9729 65.0781C96.7589 64.9653 96.6015 64.7758 96.5301 64.5445C96.4586 64.3133 96.4812 64.068 96.5942 63.8539L103.498 50.7628L102.97 55.2492C102.894 55.892 103.354 56.4744 103.997 56.5502C104.639 56.6252 105.222 56.1661 105.297 55.5234L107.278 38.7047C107.284 38.6592 107.287 38.6134 107.287 38.5677C107.287 35.8006 109.538 33.5495 112.304 33.5495H128.836C131.602 33.5495 133.854 35.8006 133.854 38.5677C133.854 38.6134 133.856 38.6592 133.862 38.7047L136.297 59.3797C136.367 59.9759 136.873 60.4145 137.459 60.4145C137.505 60.4145 137.551 60.4119 137.598 60.4064C138.241 60.3306 138.7 59.7483 138.625 59.1055L137.348 48.2639C142.763 43.4233 145.856 36.5309 145.856 29.2523C145.856 23.6472 144.072 18.3287 140.697 13.8723C137.544 9.71031 133.112 6.56719 128.168 4.97578C126.831 2.04406 123.874 0 120.446 0H120.276C116.849 0 113.892 2.04406 112.554 4.97594C107.518 6.59703 103.027 9.81844 99.8603 14.0938C99.4751 14.6139 99.5845 15.3477 100.104 15.733C100.314 15.8883 100.559 15.9633 100.801 15.9633C101.16 15.9633 101.514 15.7992 101.744 15.4887C104.314 12.0189 107.843 9.31437 111.827 7.72766C111.805 7.97703 111.792 8.22906 111.792 8.48406V8.65438C111.792 9.80688 112.024 10.9061 112.442 11.9089C109.369 13.3109 106.733 15.4948 104.767 18.2853C102.498 21.5067 101.298 25.2992 101.298 29.2528C101.298 33.202 102.49 36.9694 104.744 40.1822L104.092 45.7225C99.6947 41.3852 97.2098 35.4966 97.2098 29.2528C97.2098 25.9447 97.8926 22.7505 99.2392 19.7592C99.5048 19.1691 99.2418 18.4753 98.6517 18.2095C98.0617 17.9441 97.3676 18.2067 97.102 18.797C95.6182 22.0927 94.8659 25.6105 94.8659 29.2527C94.8659 36.1858 97.6472 42.7219 102.565 47.5089L94.5209 62.7608C94.1159 63.5288 94.0342 64.4083 94.2907 65.2377C94.5475 66.067 95.1115 66.7467 95.8795 67.1516L101.235 69.9755L101.045 71.5878C100.61 75.2825 102.913 78.8211 106.402 79.8191C106.822 79.9392 107.283 80.0002 107.771 80.0002C109.852 80.0002 110.929 78.9361 111.794 78.0813C112.551 77.3331 113.052 76.8388 114.17 76.8388C115.288 76.8388 115.789 77.333 116.546 78.0811C117.411 78.9359 118.488 80 120.569 80C122.65 80 123.727 78.9359 124.592 78.0809C125.349 77.3328 125.85 76.8386 126.968 76.8386C128.087 76.8386 128.587 77.333 129.344 78.0811C130.21 78.9359 131.287 80 133.368 80C133.855 80 134.316 79.9395 134.735 79.8202C138.226 78.8269 140.531 75.2916 140.096 71.5967L139.218 64.147C139.143 63.5042 138.557 63.0456 137.918 63.1203C137.275 63.1961 136.815 63.7784 136.891 64.4212L137.768 71.8709C138.07 74.4358 136.491 76.8839 134.094 77.5659C133.88 77.6267 133.642 77.6564 133.368 77.6564C132.249 77.6564 131.749 77.1622 130.992 76.4139C130.126 75.5589 129.049 74.495 126.968 74.495C124.887 74.495 123.81 75.5591 122.945 76.4141C122.188 77.1622 121.688 77.6564 120.569 77.6564C119.451 77.6564 118.95 77.162 118.193 76.4139C117.328 75.5589 116.251 74.495 114.17 74.495C112.089 74.495 111.012 75.5591 110.147 76.4141C109.39 77.1622 108.89 77.6564 107.771 77.6564C107.497 77.6564 107.261 77.6267 107.047 77.5656C104.65 76.8802 103.071 74.4281 103.373 71.862L104.698 60.6116ZM138.828 15.2878C141.893 19.3337 143.513 24.1627 143.513 29.2527C143.513 35.2948 141.164 41.0431 137.004 45.3439L136.334 39.6564C138.355 36.5598 139.424 32.9705 139.424 29.2525C139.424 25.2989 138.225 21.5064 135.955 18.285C133.989 15.4947 131.354 13.3106 128.28 11.9086C128.699 10.9058 128.931 9.80656 128.931 8.65406V8.48375C128.931 8.22875 128.917 7.97688 128.895 7.72766C132.799 9.28375 136.275 11.9175 138.828 15.2878ZM120.276 2.34375H120.446C123.832 2.34375 126.587 5.09828 126.587 8.48391V8.65422C126.587 12.0398 123.832 14.7944 120.446 14.7944H120.276C116.89 14.7944 114.136 12.0398 114.136 8.65422V8.48391C114.136 5.09828 116.89 2.34375 120.276 2.34375ZM106.683 19.6352C108.457 17.1173 110.852 15.1633 113.646 13.9389C115.202 15.8869 117.595 17.1383 120.276 17.1383H120.446C123.127 17.1383 125.52 15.8867 127.076 13.9389C129.87 15.1633 132.265 17.1173 134.039 19.6352C136.029 22.4592 137.081 25.785 137.081 29.2528C137.081 31.5683 136.609 33.827 135.701 35.9141C134.634 33.1627 131.959 31.2061 128.836 31.2061H112.305C108.986 31.2061 106.175 33.4139 105.259 36.4372C104.196 34.2109 103.642 31.7744 103.642 29.2528C103.642 25.7848 104.694 22.4592 106.683 19.6352Z" fill="#003445"/>
<path d="M112.635 44.2262L110.968 64.2262C110.914 64.871 111.393 65.4376 112.038 65.4914C112.071 65.4942 112.104 65.4954 112.137 65.4954C112.74 65.4954 113.252 65.0326 113.303 64.4207L114.97 44.4207C115.024 43.7757 114.544 43.2093 113.899 43.1556C113.255 43.1011 112.688 43.5811 112.635 44.2262Z" fill="#003445"/>
<path d="M127.618 51.4854C126.971 51.5068 126.464 52.0485 126.485 52.6954L127.006 68.4246C127.027 69.0584 127.547 69.5578 128.176 69.5578C128.189 69.5578 128.203 69.5576 128.216 69.5571C128.863 69.5357 129.37 68.994 129.348 68.3471L128.828 52.6179C128.806 51.971 128.261 51.4659 127.618 51.4854Z" fill="#003445"/>
</g>
<g clip-path="url(#clip1)">
<path d="M76.6697 58.6305C76.0294 54.3745 72.5461 31.1683 70.6455 17.3316C70.3708 15.3345 69.3961 13.4705 67.7469 11.7908C67.2843 11.319 66.5262 11.3123 66.055 11.7749C65.5832 12.2382 65.5765 12.9956 66.0392 13.4668C67.3197 14.7718 68.0722 16.1811 68.2749 17.6575C70.0913 30.8783 73.3493 52.6368 74.199 58.2923H66.1014L59.5108 27.4323C59.3814 26.8244 58.8065 26.4173 58.1912 26.4948C57.5748 26.5729 57.1201 27.1094 57.1451 27.7308C57.3819 33.5682 57.0047 42.3652 55.4788 44.7791H49.5804C49.4199 36.1298 47.5284 28.7452 44.9161 22.6117C48.8834 14.9756 53.9456 10.1422 56.34 8.12624C58.696 8.91848 60.7559 9.8163 62.4674 10.7984C62.6548 10.9064 62.8598 10.9577 63.0619 10.9577C63.4763 10.9577 63.8791 10.7416 64.1007 10.3565C64.4297 9.78335 64.2313 9.05214 63.6588 8.72316C62.0316 7.78932 60.1291 6.93117 57.9868 6.16457C58.6325 4.70216 58.4574 2.93641 57.3813 1.61317C55.9183 -0.180658 53.3188 -0.515131 51.4536 0.798958C40.8163 3.2129 30.3695 1.15907 28.6972 0.798348C26.8319 -0.517572 24.2325 -0.182489 22.7694 1.61378C21.6922 2.93641 21.517 4.70338 22.1646 6.16579C19.197 7.22902 16.7074 8.45583 14.7531 9.82424C11.6574 11.991 9.891 14.5166 9.50404 17.3316C7.60279 31.1689 4.12012 54.3763 3.47925 58.6311C2.43738 59.1541 1.71838 60.2302 1.71838 61.4735V63.8447C1.71838 65.5995 3.14539 67.0259 4.89954 67.0259H14.1299C15.8841 67.0259 17.3111 65.5995 17.3111 63.8447V61.4735C17.3111 60.5634 16.9247 59.7437 16.3101 59.1633L20.8157 38.0665C21.2857 43.6823 22.2848 45.6373 22.8994 46.4307V50.5146C22.6498 51.1127 21.9711 52.8053 21.1953 55.3077C20.9994 55.9394 21.3528 56.6096 21.9839 56.8049C22.6156 57.0008 23.2852 56.6474 23.4811 56.0163C24.0597 54.1486 24.5871 52.7418 24.8983 51.9538H27.4392V68.4284C27.4392 69.0888 27.9745 69.6247 28.6355 69.6247H33.0014C33.6624 69.6247 34.1977 69.0888 34.1977 68.4284V63.3064H37.3672C38.0283 63.3064 38.5635 62.7711 38.5635 62.1101V51.9538H40.8163V75.6123C40.8163 75.6617 40.8188 75.7106 40.82 75.7588C31.766 76.006 23.2565 74.3226 20.5197 73.7165C20.5954 69.4837 21.1734 65.0611 22.2415 60.5549C22.3941 59.9116 21.9967 59.2671 21.3534 59.1145C20.7119 58.9625 20.0656 59.3598 19.9136 60.0031C18.7222 65.0282 18.1186 69.961 18.1186 74.665C18.1186 75.2131 18.4903 75.691 19.0219 75.8253C19.44 75.9309 28.464 78.1782 38.9297 78.1782C39.8148 78.1782 40.7108 78.1617 41.6116 78.1269C42.4063 79.2579 43.7198 79.9995 45.2036 79.9995C47.5388 79.9995 49.4534 78.1648 49.5834 75.8613H60.8341C61.4951 75.8613 62.0304 75.326 62.0304 74.665C62.0304 62.4366 57.9691 52.2266 57.2501 50.5146V46.4295C57.8659 45.6361 58.8645 43.6799 59.3344 38.0652L63.8401 59.1627C63.2248 59.7431 62.8385 60.5634 62.8385 61.4735V63.8447C62.8385 65.5988 64.2655 67.0259 66.0196 67.0259H75.2506C77.0047 67.0259 78.4317 65.5988 78.4317 63.8447V61.4735C78.4317 60.2296 77.7128 59.1529 76.6697 58.6305ZM55.5258 3.1244C56.2192 3.97706 56.0904 5.23622 55.2396 5.9308C53.0954 7.6758 47.9434 12.3419 43.6716 19.8871C42.9672 18.4455 42.2281 17.0813 41.4682 15.7965C45.8481 8.81166 50.7694 4.42628 52.72 2.83815C53.5727 2.14417 54.8319 2.27357 55.5258 3.1244ZM48.0057 3.85499C45.6735 6.13466 42.8116 9.35305 40.068 13.5468C37.2983 9.31032 34.4015 6.06691 32.0914 3.80922C34.2569 4.09974 37.1286 4.36586 40.3983 4.36586C42.7652 4.36586 45.3409 4.22487 48.0057 3.85499ZM24.6249 3.12501C25.3195 2.27235 26.578 2.14356 27.4307 2.83753C31.9937 6.55336 46.7166 20.4309 47.1872 44.7791H43.1973C42.7298 22.1912 29.1311 9.36525 24.9124 5.93019C24.0597 5.23561 23.9309 3.97706 24.6249 3.12501ZM14.9185 63.8447C14.9185 64.2799 14.5651 64.6333 14.1305 64.6333H4.89954C4.46497 64.6333 4.11158 64.2799 4.11158 63.8447V61.4735C4.11158 61.0401 4.46314 60.6873 4.89649 60.6855H14.1336C14.5669 60.6873 14.9185 61.0401 14.9185 61.4735V63.8447ZM21.9601 26.4954C21.3424 26.4173 20.7699 26.8244 20.6399 27.4323L14.0493 58.2923H5.95057C6.80018 52.6368 10.0582 30.8783 11.8746 17.6575C12.2402 14.9988 14.6249 11.2134 23.8125 8.12624C28.226 11.8408 40.3531 23.9356 40.8035 44.7791H24.6707C23.1472 42.3652 22.7694 33.5688 23.0056 27.7308C23.0307 27.1094 22.5766 26.5729 21.9601 26.4954ZM25.2939 47.1723H54.8569V49.5606H25.2939V47.1723ZM31.8051 67.2315H29.8324V51.9538H31.8051V67.2315ZM36.1709 60.9138H34.1983V51.9538H36.1709V60.9138ZM45.2042 77.6063C44.1043 77.6063 43.2095 76.7121 43.2095 75.6123V51.9538H47.1982V75.6123C47.1982 76.7121 46.3034 77.6063 45.2042 77.6063ZM49.5908 73.4687V51.9538H55.25C56.2357 54.4532 59.3906 63.213 59.6244 73.4687H49.5908ZM76.0392 63.8447C76.0392 64.2799 75.6858 64.6333 75.2512 64.6333H66.0202C65.5857 64.6333 65.2317 64.2799 65.2317 63.8447V61.4735C65.2317 61.0401 65.5838 60.6873 66.0172 60.6855H75.2543C75.6876 60.6873 76.0392 61.0401 76.0392 61.4735V63.8447Z" fill="#003445"/>
</g>
<path d="M235.986 39.984H170.679V10.6624C170.679 6.24594 174.259 2.66565 178.676 2.66565H181.341V8.13018C178.238 8.76368 176.009 11.4937 176.01 14.6608C176.01 15.397 176.607 15.9936 177.343 15.9936H188.005C188.741 15.9936 189.338 15.397 189.338 14.6608C189.339 11.4937 187.11 8.76352 184.007 8.13018V1.33275C184.007 0.596636 183.41 0 182.674 0H178.676C172.787 0 168.013 4.77371 168.013 10.6624V39.984H164.015C161.807 39.984 160.016 41.7742 160.016 43.9824C160.016 46.1906 161.806 47.9808 164.015 47.9808C164.375 57.6836 168.533 67.9728 174.757 71.0248C172.745 73.1741 172.856 76.5478 175.005 78.5603C177.154 80.5727 180.528 80.4617 182.54 78.3125C184.154 76.5887 184.442 74.0082 183.247 71.9712H216.74C216.261 72.7785 216.004 73.698 215.994 74.6368C215.976 77.5811 218.349 79.982 221.293 79.9995C224.238 80.017 226.639 77.6444 226.656 74.7001C226.664 73.3361 226.149 72.0209 225.217 71.025C231.441 67.9729 235.599 57.6836 235.986 47.9809C238.194 47.9809 239.984 46.1907 239.984 43.9825C239.984 41.7742 238.194 39.984 235.986 39.984ZM184.001 10.883C185.144 11.2852 186.044 12.1845 186.446 13.3279H178.902C179.635 11.2449 181.918 10.1502 184.001 10.883ZM203.999 42.6496H222.658V57.3105H203.999V42.6496ZM162.682 43.9824C162.682 43.2463 163.279 42.6496 164.015 42.6496H201.333V45.3153H164.015C163.279 45.3151 162.682 44.7185 162.682 43.9824ZM178.676 77.3023C177.203 77.3023 176.01 76.1089 176.01 74.6367C176.01 73.1645 177.203 71.971 178.676 71.971C180.148 71.971 181.341 73.1645 181.341 74.6367C181.341 76.1089 180.148 77.3023 178.676 77.3023ZM221.325 77.3023C219.853 77.3023 218.66 76.1089 218.66 74.6367C218.66 73.1645 219.853 71.971 221.325 71.971C222.797 71.971 223.991 73.1645 223.991 74.6367C223.991 76.1089 222.797 77.3023 221.325 77.3023ZM221.325 69.3055H178.676C172.745 69.3055 167.147 59.1229 166.68 47.9808H201.333V61.3087C201.333 62.0448 201.93 62.6415 202.666 62.6415C203.402 62.6415 203.999 62.0447 203.999 61.3087V59.976H206.664V61.3087C206.664 62.0448 207.261 62.6415 207.997 62.6415C208.733 62.6415 209.33 62.0447 209.33 61.3087V59.976H211.995V61.3087C211.995 62.0448 212.592 62.6415 213.328 62.6415C214.064 62.6415 214.661 62.0447 214.661 61.3087V59.976H217.327V61.3087C217.327 62.0448 217.923 62.6415 218.659 62.6415C219.395 62.6415 219.992 62.0447 219.992 61.3087V59.976H222.658V61.3087C222.658 62.0448 223.254 62.6415 223.991 62.6415C224.727 62.6415 225.323 62.0447 225.323 61.3087V47.9808H233.32C232.854 59.123 227.256 69.3055 221.325 69.3055ZM235.986 45.3151H225.323V42.6495H235.986C236.722 42.6495 237.319 43.2463 237.319 43.9822C237.319 44.7182 236.722 45.3151 235.986 45.3151Z" fill="#003445"/>
<path d="M184.007 19.9922C184.007 19.2561 183.41 18.6594 182.674 18.6594C181.938 18.6594 181.341 19.2561 181.341 19.9922V21.3249C181.341 22.061 181.938 22.6577 182.674 22.6577C183.41 22.6577 184.007 22.061 184.007 21.3249V19.9922Z" fill="#003445"/>
<path d="M184.007 26.6555C184.007 25.9194 183.41 25.3228 182.674 25.3228C181.938 25.3228 181.341 25.9194 181.341 26.6555V27.9882C181.341 28.7244 181.938 29.321 182.674 29.321C183.41 29.321 184.007 28.7244 184.007 27.9882V26.6555Z" fill="#003445"/>
<path d="M182.674 31.9866C181.938 31.9866 181.341 32.5834 181.341 33.3193V34.6521C181.341 35.3882 181.938 35.9848 182.674 35.9848C183.41 35.9848 184.007 35.3882 184.007 34.6521V33.3193C184.007 32.5834 183.41 31.9866 182.674 31.9866Z" fill="#003445"/>
<path d="M189.338 19.9922C189.338 19.2561 188.741 18.6594 188.005 18.6594C187.269 18.6594 186.673 19.2561 186.673 19.9922V21.3249C186.673 22.061 187.269 22.6577 188.005 22.6577C188.741 22.6577 189.338 22.061 189.338 21.3249V19.9922Z" fill="#003445"/>
<path d="M189.338 26.6555C189.338 25.9194 188.741 25.3228 188.005 25.3228C187.269 25.3228 186.673 25.9194 186.673 26.6555V27.9882C186.673 28.7244 187.269 29.321 188.005 29.321C188.741 29.321 189.338 28.7244 189.338 27.9882V26.6555Z" fill="#003445"/>
<path d="M188.005 31.9866C187.269 31.9866 186.672 32.5834 186.672 33.3193V34.6521C186.672 35.3882 187.269 35.9848 188.005 35.9848C188.741 35.9848 189.338 35.3882 189.338 34.6521V33.3193C189.338 32.5834 188.741 31.9866 188.005 31.9866Z" fill="#003445"/>
<path d="M178.675 19.9922C178.675 19.2561 178.079 18.6594 177.343 18.6594C176.606 18.6594 176.01 19.2561 176.01 19.9922V21.3249C176.01 22.061 176.606 22.6577 177.343 22.6577C178.079 22.6577 178.675 22.061 178.675 21.3249V19.9922Z" fill="#003445"/>
<path d="M178.675 26.6555C178.675 25.9194 178.079 25.3228 177.343 25.3228C176.606 25.3228 176.01 25.9194 176.01 26.6555V27.9882C176.01 28.7244 176.606 29.321 177.343 29.321C178.079 29.321 178.675 28.7244 178.675 27.9882V26.6555Z" fill="#003445"/>
<path d="M177.343 31.9866C176.606 31.9866 176.01 32.5834 176.01 33.3193V34.6521C176.01 35.3882 176.606 35.9848 177.343 35.9848C178.079 35.9848 178.675 35.3882 178.675 34.6521V33.3193C178.675 32.5834 178.078 31.9866 177.343 31.9866Z" fill="#003445"/>
<defs>
<clipPath id="clip0">
<rect width="80" height="80" fill="white" transform="translate(80)"/>
</clipPath>
<clipPath id="clip1">
<rect width="80" height="80" fill="white"/>
</clipPath>
</defs>
</svg>
