<svg width="64" height="64" viewBox="0 0 64 64" fill="none" xmlns="http://www.w3.org/2000/svg">
<circle cx="32" cy="32" r="32" fill="url(#paint0_linear)"/>
<g filter="url(#filter0_d)">
<path d="M51.4141 42.0391C51.4141 40.3132 50.0149 38.9141 48.2891 38.9141H18.8359C15.3841 38.9141 12.5859 41.7123 12.5859 45.1641C12.5859 48.6159 15.3841 51.4141 18.8359 51.4141H48.2891C50.0149 51.4141 51.4141 50.0149 51.4141 48.2891C51.4141 46.5632 50.0149 45.1641 48.2891 45.1641C50.0149 45.1641 51.4141 43.7649 51.4141 42.0391Z" fill="#173191"/>
<path d="M48.4844 45.0408H23.0978C19.6166 45.0408 16.7826 42.2777 16.6648 38.8252C13.9719 39.5957 12.625 42.0739 12.625 45.0143C12.625 48.5703 14.8827 51.4529 18.4386 51.4529H48.0775C49.8555 51.4529 51.2969 50.0116 51.2969 48.2336C51.2969 46.5936 50.0702 45.2409 48.4844 45.0408V45.0408Z" fill="#002367"/>
<path d="M15.7109 29.5391C15.7109 27.8132 17.1101 26.4141 18.8359 26.4141H42.0391C45.4909 26.4141 48.2891 29.2123 48.2891 32.6641C48.2891 36.1159 45.4909 38.9141 42.0391 38.9141H18.8359C17.1101 38.9141 15.7109 37.5149 15.7109 35.7891C15.7109 34.0632 17.1101 32.6641 18.8359 32.6641C17.1101 32.6641 15.7109 31.2649 15.7109 29.5391Z" fill="#F5F5FC"/>
<path d="M38.9141 35.7891C38.9141 34.0632 40.3132 32.6641 42.0391 32.6641H18.8359C17.1101 32.6641 15.7109 34.0632 15.7109 35.7891C15.7109 37.5149 17.1101 38.9141 18.8359 38.9141H42.0391C40.3132 38.9141 38.9141 37.5149 38.9141 35.7891Z" fill="#EBEBF5"/>
<path d="M27.9004 20.9818C27.9004 24.5111 29.4937 27.6679 31.9998 29.7735C34.5059 27.6679 36.0993 24.5111 36.0993 20.9818C36.0993 17.8368 34.8341 14.9878 32.7855 12.9146C32.3523 12.4764 31.6473 12.4764 31.2143 12.9146C29.1655 14.9878 27.9004 17.8368 27.9004 20.9818V20.9818Z" fill="#73EEFF"/>
<path d="M25.1144 23.4645C26.4147 26.6038 28.995 28.8246 31.9998 29.7741C33.4531 26.978 33.7074 23.583 32.407 20.4438C31.2484 17.6464 29.0734 15.5784 26.4873 14.4892C25.9405 14.259 25.3135 14.5187 25.0897 15.0681C24.0313 17.667 23.9556 20.6672 25.1144 23.4645V23.4645Z" fill="#A1EEFF"/>
<path d="M32.4064 20.4424C31.8473 19.0924 31.0509 17.9129 30.0864 16.9307C30.0807 16.9364 30.0751 16.9421 30.0694 16.9479C28.9427 18.0985 27.2696 18.515 25.7307 18.0404C25.2882 17.9039 24.8364 17.7945 24.3771 17.7129C24.1131 19.5984 24.3324 21.5768 25.1137 23.4631C26.4141 26.6025 28.9944 28.8232 31.9992 29.7728C33.4525 26.9766 33.7068 23.5817 32.4064 20.4424Z" fill="#8FF8FF"/>
<path d="M38.8855 23.4645C37.5852 26.6038 35.0049 28.8246 32.0001 29.7741C30.5468 26.978 30.2925 23.583 31.5929 20.4438C32.7515 17.6464 34.9265 15.5784 37.5126 14.4892C38.0594 14.259 38.6864 14.5187 38.9101 15.0681C39.9686 17.667 40.0443 20.6672 38.8855 23.4645Z" fill="#A1EEFF"/>
<path d="M33.913 16.9316C32.9485 17.9138 32.1521 19.0934 31.5928 20.4434C30.2925 23.5827 30.5468 26.9775 32 29.7737C35.0049 28.8242 37.5852 26.6034 38.8855 23.4641C39.6668 21.5779 39.8861 19.5995 39.6221 17.714C39.1628 17.7955 38.711 17.905 38.2685 18.0415C36.7296 18.5161 35.0565 18.0995 33.9299 16.949C33.9243 16.9431 33.9186 16.9373 33.913 16.9316V16.9316Z" fill="#8FEBFF"/>
<path d="M24.323 26.9432C26.4249 29.0451 29.2539 29.9761 32.0004 29.7377C32.2389 26.9912 31.3078 24.1622 29.2059 22.0603C27.3329 20.1873 24.8827 19.244 22.4279 19.2295C21.9089 19.2265 21.4891 19.6463 21.4922 20.1652C21.5067 22.62 22.45 25.0702 24.323 26.9432V26.9432Z" fill="#B9F7FF"/>
<path d="M34.7949 22.0593C32.6929 24.1613 31.7619 26.9903 32.0003 29.7367C34.7468 29.9753 37.5758 29.0442 39.6777 26.9422C41.5507 25.0692 42.494 22.619 42.5085 20.1642C42.5116 19.6453 42.0917 19.2254 41.5728 19.2285C39.118 19.2431 36.6677 20.1863 34.7949 22.0593Z" fill="#B9F7FF"/>
<path d="M32.0003 29.7364C33.7698 29.8901 35.5731 29.5575 37.1945 28.7399C37.9035 27.7187 38.3198 26.4796 38.3198 25.1449C38.3198 23.5542 37.6557 21.9506 36.7824 20.5293C36.0721 20.9414 35.4029 21.4509 34.7949 22.059C32.6929 24.1609 31.7618 26.9899 32.0003 29.7364Z" fill="#A1F4FF"/>
<path d="M32.0001 29.7364C32.2386 26.9899 31.3076 24.1609 29.2056 22.059C28.5975 21.4509 27.9282 20.9414 27.2181 20.5293C26.3447 21.9506 25.6807 23.5541 25.6807 25.1449C25.6807 26.4796 26.0969 27.7187 26.806 28.7399C28.4274 29.5575 30.2308 29.8901 32.0001 29.7364Z" fill="#A1F4FF"/>
<path d="M32 29.7739C34.556 29.7739 36.628 27.7018 36.628 25.1459C36.628 22.4145 33.9357 19.3625 32.6581 18.068C32.2961 17.7013 31.7039 17.7013 31.342 18.068C30.0643 19.3625 27.3721 22.4145 27.3721 25.1459C27.3721 27.7018 29.4441 29.7739 32 29.7739Z" fill="#B9F7FF"/>
</g>
<defs>
<filter id="filter0_d" x="4" y="6" width="56" height="56" filterUnits="userSpaceOnUse" color-interpolation-filters="sRGB">
<feFlood flood-opacity="0" result="BackgroundImageFix"/>
<feColorMatrix in="SourceAlpha" type="matrix" values="0 0 0 0 0 0 0 0 0 0 0 0 0 0 0 0 0 0 127 0" result="hardAlpha"/>
<feOffset dy="2"/>
<feGaussianBlur stdDeviation="4"/>
<feColorMatrix type="matrix" values="0 0 0 0 0 0 0 0 0 0 0 0 0 0 0 0 0 0 0.12 0"/>
<feBlend mode="normal" in2="BackgroundImageFix" result="effect1_dropShadow"/>
<feBlend mode="normal" in="SourceGraphic" in2="effect1_dropShadow" result="shape"/>
</filter>
<linearGradient id="paint0_linear" x1="28" y1="-24" x2="32" y2="112" gradientUnits="userSpaceOnUse">
<stop offset="0.414583" stop-color="#003445"/>
<stop offset="1" stop-color="#B8F2FF"/>
</linearGradient>
</defs>
</svg>
