<svg width="26" height="26" viewBox="0 0 26 26" fill="none" xmlns="http://www.w3.org/2000/svg">
<circle cx="13" cy="11" r="8" fill="url(#paint0_linear)"/>
<g filter="url(#filter0_d)">
<path d="M17.8535 13.5098C17.8535 13.0783 17.5037 12.7285 17.0723 12.7285H9.70898C8.84604 12.7285 8.14648 13.4281 8.14648 14.291C8.14648 15.154 8.84604 15.8535 9.70898 15.8535H17.0723C17.5037 15.8535 17.8535 15.5037 17.8535 15.0723C17.8535 14.6408 17.5037 14.291 17.0723 14.291C17.5037 14.291 17.8535 13.9412 17.8535 13.5098Z" fill="#173191"/>
<path d="M17.1211 14.2602H10.7745C9.90416 14.2602 9.19564 13.5694 9.16621 12.7063C8.49297 12.8989 8.15625 13.5185 8.15625 14.2536C8.15625 15.1426 8.72066 15.8632 9.60965 15.8632H17.0194C17.4639 15.8632 17.8242 15.5029 17.8242 15.0584C17.8242 14.6484 17.5175 14.3102 17.1211 14.2602Z" fill="#002367"/>
<path d="M8.92773 10.3848C8.92773 9.9533 9.27752 9.60352 9.70898 9.60352H15.5098C16.3727 9.60352 17.0723 10.3031 17.0723 11.166C17.0723 12.029 16.3727 12.7285 15.5098 12.7285H9.70898C9.27752 12.7285 8.92773 12.3787 8.92773 11.9473C8.92773 11.5158 9.27752 11.166 9.70898 11.166C9.27752 11.166 8.92773 10.8162 8.92773 10.3848Z" fill="#F5F5FC"/>
<path d="M14.7285 11.9473C14.7285 11.5158 15.0783 11.166 15.5098 11.166H9.70898C9.27752 11.166 8.92773 11.5158 8.92773 11.9473C8.92773 12.3787 9.27752 12.7285 9.70898 12.7285H15.5098C15.0783 12.7285 14.7285 12.3787 14.7285 11.9473Z" fill="#EBEBF5"/>
<path d="M11.9751 8.24544C11.9751 9.12778 12.3734 9.91697 13 10.4434C13.6265 9.91697 14.0248 9.12778 14.0248 8.24544C14.0248 7.45921 13.7085 6.74694 13.1964 6.22866C13.0881 6.11909 12.9118 6.11909 12.8036 6.22866C12.2914 6.74694 11.9751 7.45921 11.9751 8.24544Z" fill="#73EEFF"/>
<path d="M11.2786 8.86613C11.6037 9.65096 12.2488 10.2062 13 10.4435C13.3633 9.74449 13.4269 8.89576 13.1018 8.11094C12.8121 7.4116 12.2683 6.89461 11.6218 6.62231C11.4851 6.56475 11.3284 6.62967 11.2724 6.76703C11.0078 7.41674 10.9889 8.1668 11.2786 8.86613Z" fill="#A1EEFF"/>
<path d="M13.1016 8.1106C12.9618 7.7731 12.7627 7.47823 12.5216 7.23267C12.5202 7.23411 12.5188 7.23554 12.5174 7.23698C12.2357 7.52462 11.8174 7.62876 11.4327 7.51011C11.3221 7.47599 11.2091 7.44862 11.0943 7.42823C11.0283 7.8996 11.0831 8.39421 11.2784 8.86577C11.6035 9.65061 12.2486 10.2058 12.9998 10.4432C13.3631 9.74415 13.4267 8.89542 13.1016 8.1106Z" fill="#8FF8FF"/>
<path d="M14.7214 8.86613C14.3963 9.65096 13.7512 10.2062 13 10.4435C12.6367 9.74449 12.5731 8.89576 12.8982 8.11094C13.1879 7.4116 13.7316 6.89461 14.3782 6.62231C14.5148 6.56475 14.6716 6.62967 14.7275 6.76703C14.9921 7.41674 15.0111 8.1668 14.7214 8.86613Z" fill="#A1EEFF"/>
<path d="M13.4783 7.23291C13.2371 7.47846 13.038 7.77334 12.8982 8.11084C12.5731 8.89566 12.6367 9.74437 13 10.4434C13.7512 10.2061 14.3963 9.65086 14.7214 8.86604C14.9167 8.39447 14.9715 7.89988 14.9055 7.4285C14.7907 7.44889 14.6777 7.47625 14.5671 7.51037C14.1824 7.62902 13.7641 7.52488 13.4825 7.23725C13.4811 7.23578 13.4797 7.23434 13.4783 7.23291Z" fill="#8FEBFF"/>
<path d="M11.0807 9.7358C11.6062 10.2613 12.3135 10.494 13.0001 10.4344C13.0597 9.74781 12.827 9.04056 12.3015 8.51507C11.8332 8.04683 11.2207 7.81101 10.607 7.80738C10.4772 7.80662 10.3723 7.91158 10.3731 8.0413C10.3767 8.65499 10.6125 9.26755 11.0807 9.7358Z" fill="#B9F7FF"/>
<path d="M13.6987 8.51483C13.1732 9.04032 12.9405 9.74756 13.0001 10.4342C13.6867 10.4938 14.3939 10.261 14.9194 9.73555C15.3877 9.26731 15.6235 8.65475 15.6271 8.04106C15.6279 7.91131 15.5229 7.80635 15.3932 7.80713C14.7795 7.81077 14.1669 8.04659 13.6987 8.51483Z" fill="#B9F7FF"/>
<path d="M13.0001 10.4341C13.4424 10.4725 13.8933 10.3894 14.2986 10.185C14.4759 9.92967 14.58 9.6199 14.58 9.28623C14.58 8.88856 14.4139 8.48766 14.1956 8.13232C14.018 8.23535 13.8507 8.36271 13.6987 8.51475C13.1732 9.04024 12.9405 9.74748 13.0001 10.4341Z" fill="#A1F4FF"/>
<path d="M13 10.4341C13.0597 9.74748 12.8269 9.04024 12.3014 8.51475C12.1494 8.36271 11.9821 8.23535 11.8045 8.13232C11.5862 8.48766 11.4202 8.88854 11.4202 9.28623C11.4202 9.6199 11.5242 9.92967 11.7015 10.185C12.1068 10.3894 12.5577 10.4725 13 10.4341Z" fill="#A1F4FF"/>
<path d="M13 10.4435C13.639 10.4435 14.157 9.92546 14.157 9.28647C14.157 8.60362 13.4839 7.84063 13.1645 7.517C13.074 7.42532 12.926 7.42532 12.8355 7.517C12.5161 7.84063 11.843 8.60362 11.843 9.28647C11.843 9.92546 12.361 10.4435 13 10.4435Z" fill="#B9F7FF"/>
</g>
<defs>
<filter id="filter0_d" x="0" y="0" width="26" height="26" filterUnits="userSpaceOnUse" color-interpolation-filters="sRGB">
<feFlood flood-opacity="0" result="BackgroundImageFix"/>
<feColorMatrix in="SourceAlpha" type="matrix" values="0 0 0 0 0 0 0 0 0 0 0 0 0 0 0 0 0 0 127 0" result="hardAlpha"/>
<feOffset dy="2"/>
<feGaussianBlur stdDeviation="4"/>
<feColorMatrix type="matrix" values="0 0 0 0 0 0 0 0 0 0 0 0 0 0 0 0 0 0 0.12 0"/>
<feBlend mode="normal" in2="BackgroundImageFix" result="effect1_dropShadow"/>
<feBlend mode="normal" in="SourceGraphic" in2="effect1_dropShadow" result="shape"/>
</filter>
<linearGradient id="paint0_linear" x1="12" y1="-3" x2="13" y2="31" gradientUnits="userSpaceOnUse">
<stop offset="0.414583" stop-color="#003445"/>
<stop offset="1" stop-color="#B8F2FF"/>
</linearGradient>
</defs>
</svg>
