<svg width="446" height="446" viewBox="0 0 446 446" fill="none" xmlns="http://www.w3.org/2000/svg">
<g clip-path="url(#clip0)">
<path d="M419.776 117.483V399.684C419.776 421.654 401.962 439.468 379.992 439.468H66.0074C44.0369 439.468 26.2234 421.654 26.2234 399.684V117.483C26.2234 99.2687 36.9516 82.7625 53.5973 75.3634L106.236 51.9549L176.679 27.457H290.741L339.763 51.9549L392.402 75.3634C409.048 82.7625 419.776 99.2687 419.776 117.483Z" fill="#DAFBFF"/>
<path d="M118.346 402.623C96.3758 402.623 78.5623 386.402 78.5623 366.396V174.251C78.5623 165.697 89.4221 162.026 94.6119 168.826L186.9 289.749L187.021 289.84L188.067 291.365L242.301 245.732L236.133 237.648L135.135 105.716L169.856 55.3864C148.593 68.0859 108.652 91.1301 78.5797 108.585C78.9388 92.3363 89.5746 77.7003 105.936 71.0786L158.575 49.7635L229.018 27.4565H176.679L106.236 51.9544L53.5973 75.3629C36.9516 82.762 26.2234 99.2682 26.2234 117.483V399.683C26.2234 421.655 44.0352 439.467 66.0075 439.467H379.992C400.972 439.467 418.15 423.219 419.656 402.623H118.346Z" fill="#AEF5F5"/>
<path d="M318.675 50.7738L304.32 37.9566L139.746 35.3936L91.0408 106.657L192.554 253.286L226.391 264.565L350.462 111.271L318.675 50.7738Z" fill="#DAFBFF"/>
<path d="M301.988 20.2518L261.877 6.54053H182.378L142.967 19.4928L125.366 45.3014L153.514 48.3813H290.741L312.86 44.0159L301.988 20.2518Z" fill="#A9EDED"/>
<path d="M139.746 35.3936L91.0408 106.657L192.553 253.286L226.391 264.565L241.978 245.307L236.133 237.645L145.202 118.865C139.2 111.024 138.932 100.21 144.54 92.0812L183.181 36.069L139.746 35.3936Z" fill="#9DFCFC"/>
<path d="M182.378 6.54053L142.967 19.4928L125.366 45.3014L153.514 48.3813H174.689L203.554 6.54053H182.378Z" fill="#AFEFEF"/>
<path d="M222.293 248.243L113.591 106.249L182.379 6.54053H145.828C140.651 6.54053 135.806 9.07659 132.869 13.3382L80.6833 88.9845C73.5806 99.2769 73.9117 112.977 81.5025 122.921L199.338 277.316L199.817 277.682L212.675 296.427L238.116 268.983L222.293 248.243Z" fill="#7ADAE8"/>
<path d="M363.572 88.9845L311.387 13.3382C308.45 9.07659 303.604 6.54053 298.428 6.54053H261.877L330.665 106.249L197.534 280.68C197.534 280.68 183.541 299.916 184.377 299.359C185.213 298.802 230.9 299.37 230.9 299.37L242.347 280.679L362.753 122.92C370.344 112.977 370.675 99.2769 363.572 88.9845Z" fill="#AFEFEF"/>
<path d="M184.377 299.359L76.3347 439.467H121.156C121.156 439.467 220.54 310.981 222.128 308.642C223.716 306.303 184.377 299.359 184.377 299.359Z" fill="#A9EDED"/>
<path d="M118.346 402.621C114.072 402.621 109.96 402.001 106.102 400.864L76.3347 439.466H121.156C121.156 439.466 133.548 423.446 149.645 402.622H118.346V402.621Z" fill="#AFEFEF"/>
<path d="M339.767 336.604L348.421 392.406C349.236 397.662 345.17 402.407 339.852 402.407H315.668H284.636V306.15H334.79L339.767 336.604Z" fill="#AFEFEF"/>
<path d="M315.668 402.407C315.668 405.944 312.801 408.811 309.264 408.811H260.009C256.255 408.811 253.306 405.597 253.628 401.857L259.251 336.604L263.587 293.653H315.667V402.407H315.668Z" fill="#A9EDED"/>
<path d="M429.824 295.059V322.224C429.824 330.163 423.383 336.603 415.435 336.603H30.5633C22.6152 336.603 16.1748 330.163 16.1748 322.224V295.059C16.1748 287.12 22.6152 280.679 30.5633 280.679H415.435C423.383 280.679 429.824 287.12 429.824 295.059Z" fill="#7ADAE8"/>
<path d="M92.9192 322.129C84.9711 322.129 78.5307 315.688 78.5307 307.749V280.679H30.5633C22.6152 280.679 16.1748 287.12 16.1748 295.059V322.224C16.1748 330.163 22.6152 336.604 30.5633 336.604H415.435C423.383 336.604 429.824 330.163 429.824 322.224V322.129H92.9192Z" fill="#7DBFD3"/>
<path d="M426.309 277.194V117.484C426.309 96.7087 414.044 77.8302 395.061 69.388L342.424 45.9786C342.169 45.8653 341.911 45.7747 341.652 45.6963L316.77 9.63008C312.61 3.60017 305.753 0 298.427 0H145.83C138.504 0 131.647 3.60017 127.487 9.63008L101.897 46.7238L50.9381 69.3871C31.9551 77.8294 19.6896 96.7087 19.6896 117.484V189.259C19.6896 192.868 22.6161 195.795 26.2258 195.795C29.8356 195.795 32.7621 192.868 32.7621 189.259V117.484C32.7621 101.868 41.9817 87.6773 56.2507 81.3319L87.6579 67.3644L75.3044 85.2711C66.5684 97.9349 66.9702 114.659 76.304 126.888L188.695 274.14H32.7621V217.114C32.7621 213.505 29.8356 210.578 26.2258 210.578C22.6161 210.578 19.6896 213.505 19.6896 217.114V277.194C13.6692 280.871 9.64203 287.504 9.64203 295.06V322.221C9.64203 329.777 13.6692 336.41 19.6896 340.087V399.684C19.6896 425.223 40.467 446 66.0055 446H379.994C405.533 446 426.31 425.223 426.31 399.684V340.087C432.331 336.411 436.358 329.778 436.358 322.221V295.06C436.358 287.504 432.33 280.871 426.309 277.194ZM389.749 81.3319C404.017 87.6773 413.237 101.868 413.237 117.484V274.139H393.698C390.087 274.139 387.161 277.066 387.161 280.675C387.161 284.285 390.087 287.212 393.698 287.212H415.437C419.765 287.212 423.285 290.733 423.285 295.059V302.103H134.303C130.693 302.103 127.767 305.03 127.767 308.639C127.767 312.249 130.693 315.176 134.303 315.176H423.285V322.22C423.285 326.547 419.765 330.068 415.437 330.068H30.5615C26.2345 330.068 22.7145 326.547 22.7145 322.22V315.176H102.371C105.98 315.176 108.907 312.249 108.907 308.639C108.907 305.03 105.98 302.103 102.371 302.103H22.7137V295.059C22.7137 290.732 26.2345 287.212 30.5607 287.212H365.843C369.453 287.212 372.379 284.285 372.379 280.675C372.379 277.066 369.453 274.139 365.843 274.139H255.561L367.953 126.887C377.287 114.659 377.689 97.934 368.953 85.2702L355.829 66.2462L389.749 81.3319ZM341.963 393.408C342.093 394.253 341.712 394.846 341.474 395.125C341.235 395.404 340.706 395.871 339.852 395.871H322.204V343.142H334.166L341.963 393.408ZM280.879 389.898C277.269 389.898 274.343 392.825 274.343 396.434V402.274H260.152L265.25 343.141H274.344V372.708C274.344 376.317 277.269 379.244 280.88 379.244C284.491 379.244 287.416 376.317 287.416 372.708V343.141H309.132V402.274H287.416V396.434C287.415 392.825 284.49 389.898 280.879 389.898ZM89.5464 432.927L158.077 343.141H186.451L117.921 432.927H89.5464ZM306.009 17.0535L358.192 92.6945C363.705 100.686 363.451 111.24 357.561 118.957L239.115 274.14H210.742L335.86 110.214C337.576 107.965 337.651 104.866 336.044 102.537L274.325 13.0725H298.428C301.455 13.0725 304.29 14.561 306.009 17.0535ZM156.947 54.9133H225.297C228.907 54.9133 231.833 51.9868 231.833 48.377C231.833 44.7672 228.907 41.8407 225.297 41.8407H165.966L185.812 13.0725H258.443L278.29 41.8407H253.151C249.541 41.8407 246.615 44.7672 246.615 48.377C246.615 51.9868 249.541 54.9133 253.151 54.9133H287.308L322.589 106.055L222.128 237.677L121.666 106.055L156.947 54.9133ZM86.0639 92.6945L138.247 17.0535C139.966 14.561 142.801 13.0725 145.829 13.0725H169.931L108.211 102.537C106.604 104.866 106.679 107.965 108.395 110.214L213.904 248.449L199.717 267.036L86.6957 118.957C80.8053 111.24 80.5517 100.685 86.0639 92.6945ZM32.7621 399.684V343.141H141.632L73.1012 432.927H66.0055C47.6752 432.927 32.7621 418.014 32.7621 399.684ZM379.994 432.927H134.365L202.896 343.141H252.127L247.115 401.297C246.806 404.899 248.031 408.492 250.474 411.156C252.919 413.819 256.393 415.347 260.008 415.347H309.264C314.014 415.347 318.162 412.767 320.413 408.943H339.852C344.298 408.943 348.508 407.006 351.4 403.63C354.293 400.254 355.562 395.797 354.88 391.404L347.395 343.141H413.237V399.684C413.237 418.014 398.324 432.927 379.994 432.927Z" fill="#003445"/>
</g>
<defs>
<clipPath id="clip0">
<rect width="446" height="446" fill="white"/>
</clipPath>
</defs>
</svg>
