<svg width="80" height="80" viewBox="0 0 80 80" fill="none" xmlns="http://www.w3.org/2000/svg">
<path d="M79.2887 16.9683C78.8444 16.6558 78.2747 16.5793 77.7637 16.7682L64.1766 21.7096C62.492 22.3216 61.1508 23.5554 60.4005 25.1829C60.2598 25.488 60.1675 25.8051 60.075 26.1216C57.7419 25.4583 53.4059 24.073 49.0969 21.8529C42.5855 18.4977 37.6109 20.1549 33.3444 23.4093C31.1825 23.4518 28.2028 23.7074 25.2738 23.9655C23.4053 24.1304 21.6395 24.2821 20.2077 24.3694C20.1725 23.5094 19.9713 22.656 19.6 21.8497C18.8497 20.2221 17.5086 18.9883 15.8239 18.3765L2.23641 13.4347C1.72703 13.2476 1.15406 13.3241 0.711406 13.6349C0.265312 13.9476 0 14.4569 0 15.0005V48.3338C0 49.2551 0.745469 50.0005 1.66672 50.0005H6.53484C8.60531 50.0005 10.5316 49.024 11.7767 47.4471C12.44 47.9515 13.2256 48.5421 14.0495 49.1607C15.9945 50.624 18.1234 52.2205 19.0577 53.0035C25.2638 58.1988 32.7247 63.8091 34.2106 64.7857C35.5989 65.6971 38.0989 66.6672 40 66.6672C40.7438 66.6672 42.6172 66.6672 43.9323 65.5555C45.2881 66.0877 46.7497 66.0618 48.1087 65.4627C49.4645 64.8654 50.5616 63.7391 51.1995 62.3702C52.5016 62.6371 53.9973 62.4418 55.3531 61.7615C56.6242 61.125 57.5602 60.1615 58.0614 59.0352C59.2658 59.1458 60.5517 58.7536 61.7023 57.873C63.3464 56.6163 64.0992 54.7604 63.8863 52.9294L68.1139 50.5905C69.352 52.2688 71.3198 53.3336 73.465 53.3336H78.3331C79.2544 53.3336 79.9998 52.5882 79.9998 51.6669V18.334C80 17.7902 79.7347 17.2808 79.2887 16.9683ZM9.65656 44.5041C9.17156 45.798 7.91672 46.6672 6.53484 46.6672H3.33328V17.3801L14.6842 21.5077C15.5273 21.8154 16.198 22.4322 16.5722 23.246C16.9481 24.0597 16.9808 24.9713 16.6666 25.8094L9.65656 44.5041ZM59.6794 55.2252C59.1145 55.6582 58.3236 55.8991 57.972 55.5476C57.9541 55.5296 57.9262 55.5313 57.9078 55.5141C57.8759 55.4846 57.8602 55.4447 57.8256 55.4172C56.6342 54.4765 51.2956 49.0143 47.9966 45.5735C47.3602 44.9079 46.3039 44.8833 45.6414 45.523C44.9758 46.1594 44.953 47.2141 45.5909 47.8782C46.3653 48.6865 52.5816 55.1607 55.0695 57.4249C54.8838 58.1568 54.2053 58.6086 53.8608 58.7815C52.7931 59.3169 51.6798 59.2274 51.2631 58.84C51.2508 58.8285 51.2323 58.8291 51.2195 58.8179C51.1992 58.7997 51.1902 58.7743 51.1686 58.7571C49.1698 57.1604 44.1553 51.8316 43.0208 50.5979C42.3973 49.9191 41.3444 49.8768 40.6656 50.4986C39.9886 51.1221 39.943 52.1768 40.5664 52.8538C40.6211 52.913 45.5355 58.2141 48.2956 60.6765C48.0244 61.4558 47.4717 62.1013 46.7627 62.4143C46.2394 62.6468 45.4209 62.766 44.4858 62.0749C42.0923 60.0455 37.2891 54.9325 36.3444 53.9215C35.7178 53.2476 34.6598 53.2135 33.9892 53.8418C33.317 54.4701 33.2812 55.5247 33.9095 56.1969C35.0295 57.3957 38.34 60.9044 40.8566 63.2802C40.5755 63.3144 40.2803 63.334 40 63.334C38.8964 63.334 37.0003 62.6293 36.0417 61.9993C34.8731 61.231 27.5358 55.7558 21.1995 50.4497C20.2409 49.6457 18.0534 48.0002 16.0514 46.4963C14.9784 45.6908 13.9898 44.9482 13.2613 44.3877L19.5016 27.7446C21.1214 27.6738 23.2809 27.4871 25.5664 27.2855C26.8591 27.1716 28.1531 27.0605 29.3897 26.9643C27.4891 28.9154 24.6633 32.4099 25.0358 35.6855C25.2067 37.1765 26.0222 38.4183 27.3975 39.2777C30.1205 40.9818 35.1613 39.5527 37.5895 36.5661C39.1569 36.3399 40.2166 35.9396 41.372 35.3666C43.3252 37.2026 45.9439 39.3608 48.6947 41.628C53.4831 45.5733 58.9111 50.046 60.3467 52.5541C61.1458 53.9491 60.0375 54.9518 59.6794 55.2252ZM62.5386 49.8652C60.318 46.8946 55.5042 42.92 50.8138 39.0549C47.6872 36.4783 44.7347 34.0451 42.845 32.1555C42.3242 31.6379 41.525 31.5207 40.8805 31.8641C39.1828 32.774 38.418 33.1499 36.5006 33.3419C35.9895 33.394 35.5306 33.6772 35.2572 34.1118C33.9502 36.1854 30.3173 37.1716 29.165 36.4522C28.5106 36.0421 28.3838 35.6254 28.348 35.308C28.1869 33.8904 29.6223 31.436 32.0036 29.0532C37.9005 23.1563 42.1159 22.0024 47.57 24.8149C52.7519 27.4866 57.8661 28.9972 60.013 29.5679C60.075 29.8176 60.12 30.0697 60.2116 30.3146L66.683 47.5726L62.5386 49.8652ZM76.6667 50.0005H73.4652C72.0833 50.0005 70.8284 49.1313 70.3434 47.8374L63.3333 29.1444C63.0192 28.3046 63.0517 27.3932 63.4277 26.5793C63.802 25.7655 64.4726 25.1486 65.3156 24.841L76.6666 20.7133L76.6667 50.0005Z" fill="#003445"/>
</svg>
