<svg width="253" height="301" viewBox="0 0 253 301" fill="none" xmlns="http://www.w3.org/2000/svg">
<g opacity="0.2">
<path d="M193.68 246.915H58.5723V292.747C58.5723 294.902 60.3191 296.649 62.4744 296.649H189.777C191.932 296.649 193.679 294.902 193.679 292.747V246.915H193.68Z" fill="#DEF8FC"/>
<path d="M244.004 146.44C252.34 152.61 247.979 165.838 237.61 165.838H15.1167C4.75914 165.838 0.38623 152.627 8.70459 146.452L117.461 65.6539V53.0955C117.461 50.8022 118.374 48.5955 119.997 46.9723L127.131 39.8381C131.955 35.0146 131.175 26.6674 124.786 22.9761C124.018 22.5371 123.186 22.202 122.325 21.9883C118.507 21.0409 114.712 22.1212 112.06 24.7669L109.646 27.1873C107.953 28.8798 105.735 29.729 103.517 29.729C101.298 29.729 99.0801 28.8798 97.3876 27.1873C94.0082 23.8022 94.0082 18.3144 97.3933 14.9293L99.808 12.5146C110.72 1.60255 128.472 1.60255 139.384 12.5146C150.296 23.4267 150.296 41.1841 139.384 52.0962L134.791 56.6886V65.6308L244.004 146.44ZM34.9999 148.503H217.663L126.149 80.7887L34.9999 148.503Z" fill="#CFDCDE"/>
<path d="M193.337 272.332C193.471 272.199 193.546 272.123 193.68 271.99V246.914H75.4517H58.5724V292.747C58.5724 294.902 60.3192 296.649 62.4745 296.649H189.777C191.932 296.649 193.679 294.902 193.679 292.747V288.534H79.3539C77.1986 288.534 75.4517 286.787 75.4517 284.632V277.514C75.4517 274.652 77.7722 272.332 80.634 272.332H193.337Z" fill="#C4F3F6"/>
<path d="M199.848 159.553V257.161C199.848 260.754 196.93 263.666 193.337 263.666H58.9149C55.3219 263.666 52.4047 260.754 52.4047 257.161V159.553C52.4047 150.455 59.7814 143.078 68.8796 143.078H183.373C192.471 143.078 199.848 150.455 199.848 159.553Z" fill="#EDFCFC"/>
<path d="M86.5689 246.874C82.9758 246.874 80.0586 244.24 80.0586 240.991V152.709C80.0586 149.036 81.5305 145.676 83.9665 143.078H68.8796C59.7814 143.078 52.4047 150.455 52.4047 159.553V257.161C52.4047 260.754 55.3219 263.666 58.9149 263.666H193.337C196.93 263.666 199.848 260.754 199.848 257.161V246.874H86.5689Z" fill="#DEF8FC"/>
<path d="M52.4069 215.423H199.846V232.473H52.4069V215.423Z" fill="#DEF8FC"/>
<path d="M52.4071 215.424H80.0593V232.473H52.4071V215.424Z" fill="#C4F3F6"/>
<path d="M246.583 142.958L179.499 93.3205C177.575 91.8977 174.863 92.3026 173.439 94.2262C172.016 96.1499 172.421 98.8626 174.345 100.286L241.43 149.923C244.182 151.959 244.41 154.962 243.707 157.094C243.004 159.225 241.034 161.503 237.611 161.503H204.178V159.553C204.178 157.204 203.78 154.947 203.06 152.838H217.662C219.532 152.838 221.191 151.639 221.776 149.863C222.362 148.087 221.742 146.136 220.239 145.023L128.724 77.3088C127.191 76.1742 125.095 76.176 123.563 77.314L32.4153 145.028C30.9151 146.143 30.2987 148.093 30.8862 149.867C31.4731 151.641 33.131 152.839 34.9992 152.839H49.1929C48.472 154.947 48.0746 157.204 48.0746 159.554V161.504H15.1142C11.6945 161.504 9.72347 159.229 9.01929 157.1C8.31512 154.972 8.54099 151.971 11.286 149.932L120.045 69.1348C121.144 68.3174 121.793 67.0281 121.793 65.6567V53.0983C121.793 51.9407 122.244 50.8529 123.062 50.0349L130.194 42.9031C133.513 39.5827 135.064 35.0018 134.449 30.3343C133.834 25.6702 131.1 21.6214 126.952 19.2275C125.831 18.5794 124.626 18.093 123.37 17.7817C118.127 16.4808 112.756 17.9492 108.996 21.7057L106.579 24.1232C104.889 25.8123 102.14 25.8112 100.453 24.1232C98.7629 22.4336 98.7634 19.6845 100.453 17.996L102.87 15.5796C107.33 11.1206 113.27 8.66496 119.596 8.66496C125.922 8.66496 131.862 11.1206 136.32 15.5802C145.543 24.802 145.543 39.808 136.321 49.0304L131.728 53.6234C130.915 54.4356 130.459 55.5378 130.459 56.6873V65.6301C130.459 67.0038 131.11 68.2955 132.214 69.1129L159.5 89.3017C161.423 90.7244 164.137 90.3195 165.559 88.3959C166.983 86.4723 166.577 83.7596 164.654 82.3362L139.124 63.4466V58.4815L142.449 55.1571C155.049 42.5565 155.049 22.0529 142.448 9.45289C136.353 3.35738 128.237 0 119.596 0C110.955 0 102.839 3.35738 96.7433 9.45232L94.3264 11.8687C91.8713 14.3232 90.519 17.587 90.519 21.0593C90.5184 24.5311 91.8707 27.7949 94.3252 30.2505C99.3937 35.3178 107.639 35.3172 112.707 30.2511L115.123 27.8342C116.738 26.2196 118.985 25.6206 121.284 26.1919C121.751 26.3074 122.199 26.4888 122.619 26.7314C124.444 27.7845 125.594 29.4661 125.858 31.4665C126.118 33.4415 125.465 35.3773 124.066 36.7758L116.935 43.9065C114.48 46.361 113.128 49.6248 113.128 53.0977V63.4772L6.11884 142.975C0.804335 146.923 -1.28623 153.536 0.792782 159.821C2.87179 166.107 8.49362 170.168 15.1142 170.168H48.0746V180.889C48.0746 183.282 50.0138 185.222 52.4071 185.222C54.8003 185.222 56.7395 183.282 56.7395 180.889V159.553C56.7395 152.859 62.1858 147.412 68.8803 147.412H183.373C190.067 147.412 195.513 152.859 195.513 159.553V211.092H56.7395V199.352C56.7395 196.959 54.8003 195.02 52.4071 195.02C50.0138 195.02 48.0746 196.959 48.0746 199.352V257.159C48.0746 261.461 50.6001 265.174 54.2406 266.924V292.746C54.2406 297.286 57.9347 300.98 62.4752 300.98H189.778C194.318 300.98 198.012 297.286 198.012 292.746V266.924C201.653 265.174 204.178 261.461 204.178 257.159V170.168H237.611C244.239 170.168 249.862 166.102 251.937 159.807C254.012 153.514 251.911 146.9 246.583 142.958ZM183.373 138.748H68.8797C63.4947 138.748 58.5811 140.805 54.8829 144.174H48.096L126.152 86.1857L204.523 144.173H197.37C193.671 140.804 188.758 138.748 183.373 138.748ZM195.513 219.757V228.142H56.7395V219.757H195.513ZM62.9055 292.315V267.998H158.459C160.852 267.998 162.791 266.059 162.791 263.665C162.791 261.272 160.852 259.333 158.459 259.333H58.9133C57.7146 259.333 56.739 258.358 56.739 257.158V236.806H195.512V257.158C195.512 258.357 194.537 259.333 193.338 259.333H176.921C174.528 259.333 172.588 261.272 172.588 263.665C172.588 266.059 174.528 267.998 176.921 267.998H189.346V292.315H62.9055Z" fill="#003445"/>
</g>
</svg>
