<svg width="357" height="357" viewBox="0 0 357 357" fill="none" xmlns="http://www.w3.org/2000/svg">
<path d="M351.771 268.099C351.771 252.695 339.283 240.208 323.88 240.208H61.0107C30.2035 240.208 5.22949 265.182 5.22949 295.989C5.22949 326.797 30.2035 351.771 61.0107 351.771H323.88C339.283 351.771 351.771 339.283 351.771 323.88C351.771 308.477 339.283 295.989 323.88 295.989C339.283 295.989 351.771 283.502 351.771 268.099Z" fill="#173191"/>
<path d="M325.623 294.891H99.048C67.9785 294.891 42.6845 270.23 41.6337 239.417C17.599 246.293 5.57812 268.411 5.57812 294.654C5.57812 326.391 25.7277 352.119 57.4645 352.119H321.992C337.861 352.119 350.725 339.255 350.725 323.387C350.725 308.749 339.776 296.677 325.623 294.891Z" fill="#002367"/>
<path d="M33.1201 156.536C33.1201 141.133 45.6074 128.646 61.0107 128.646H268.099C298.906 128.646 323.88 153.619 323.88 184.427C323.88 215.234 298.906 240.208 268.099 240.208H61.0107C45.6074 240.208 33.1201 227.721 33.1201 212.317C33.1201 196.914 45.6074 184.427 61.0107 184.427C45.6074 184.427 33.1201 171.939 33.1201 156.536Z" fill="#F5F5FC"/>
<path d="M240.208 212.317C240.208 196.914 252.695 184.427 268.099 184.427H61.0107C45.6074 184.427 33.1201 196.914 33.1201 212.317C33.1201 227.721 45.6074 240.208 61.0107 240.208H268.099C252.695 240.208 240.208 227.721 240.208 212.317Z" fill="#EBEBF5"/>
<path d="M141.912 80.1619C141.912 111.662 156.133 139.835 178.5 158.628C200.867 139.835 215.088 111.662 215.088 80.1619C215.088 52.0935 203.796 26.6656 185.512 8.16299C181.646 4.25133 175.354 4.25133 171.489 8.16299C153.204 26.6656 141.912 52.0935 141.912 80.1619Z" fill="#73EEFF"/>
<path d="M117.047 102.315C128.652 130.333 151.682 150.154 178.5 158.628C191.47 133.673 193.74 103.373 182.134 75.3546C171.793 50.3883 152.381 31.9317 129.3 22.2104C124.421 20.1556 118.824 22.4733 116.827 27.3772C107.381 50.5717 106.705 77.3488 117.047 102.315Z" fill="#A1EEFF"/>
<path d="M182.134 75.3543C177.144 63.3055 170.036 52.7789 161.428 44.0122C161.377 44.0638 161.327 44.1147 161.276 44.1663C151.22 54.4349 136.288 58.1528 122.554 53.9169C118.604 52.6987 114.571 51.7219 110.473 50.9939C108.116 67.8217 110.073 85.4793 117.047 102.314C128.653 130.333 151.682 150.153 178.5 158.628C191.471 133.672 193.74 103.373 182.134 75.3543Z" fill="#8FF8FF"/>
<path d="M239.953 102.315C228.347 130.333 205.318 150.154 178.5 158.628C165.529 133.673 163.26 103.373 174.866 75.3546C185.207 50.3883 204.619 31.9317 227.7 22.2104C232.579 20.1556 238.175 22.4733 240.172 27.3772C249.619 50.5717 250.295 77.3488 239.953 102.315Z" fill="#A1EEFF"/>
<path d="M195.573 44.0125C186.964 52.7785 179.856 63.3058 174.865 75.3545C163.26 103.373 165.529 133.672 178.499 158.628C205.318 150.154 228.347 130.333 239.952 102.315C246.925 85.4802 248.883 67.8234 246.526 50.9949C242.427 51.7228 238.394 52.6997 234.445 53.9178C220.711 58.1537 205.778 54.4359 195.723 44.1672C195.674 44.1149 195.623 44.0634 195.573 44.0125Z" fill="#8FEBFF"/>
<path d="M109.979 133.362C128.739 152.122 153.987 160.431 178.5 158.303C180.628 133.791 172.318 108.542 153.558 89.7824C136.842 73.0662 114.974 64.6474 93.065 64.5177C88.4331 64.4905 84.686 68.2376 84.7139 72.8689C84.8436 94.7777 93.2624 116.646 109.979 133.362Z" fill="#B9F7FF"/>
<path d="M203.441 89.7812C184.681 108.541 176.372 133.79 178.5 158.302C203.012 160.431 228.261 152.121 247.021 133.361C263.737 116.645 272.156 94.7764 272.286 72.8677C272.313 68.2357 268.566 64.4886 263.935 64.5165C242.025 64.6462 220.157 73.065 203.441 89.7812Z" fill="#B9F7FF"/>
<path d="M178.5 158.302C194.292 159.674 210.387 156.706 224.858 149.409C231.185 140.294 234.901 129.235 234.901 117.323C234.901 103.126 228.974 88.8143 221.18 76.1289C214.841 79.807 208.868 84.3538 203.441 89.7814C184.681 108.541 176.371 133.79 178.5 158.302Z" fill="#A1F4FF"/>
<path d="M178.5 158.302C180.629 133.79 172.319 108.541 153.559 89.7814C148.131 84.3538 142.158 79.807 135.82 76.1289C128.026 88.8143 122.099 103.126 122.099 117.323C122.099 129.235 125.814 140.294 132.142 149.409C146.613 156.706 162.708 159.674 178.5 158.302Z" fill="#A1F4FF"/>
<path d="M178.5 158.628C201.312 158.628 219.805 140.135 219.805 117.323C219.805 92.9456 195.776 65.7069 184.373 54.1532C181.143 50.8802 175.858 50.8802 172.627 54.1532C161.224 65.7069 137.196 92.9456 137.196 117.323C137.196 140.135 155.688 158.628 178.5 158.628Z" fill="#B9F7FF"/>
</svg>
