<svg width="336" height="269" viewBox="0 0 336 269" fill="none" xmlns="http://www.w3.org/2000/svg">
<path d="M322.166 192.519H313.875C311.148 192.519 308.937 194.73 308.937 197.458C308.937 200.185 311.148 202.396 313.875 202.396H322.166C324.253 202.396 325.951 204.094 325.951 206.181V222.234C325.951 224.322 324.253 226.02 322.166 226.02H13.6619C11.5746 226.02 9.87653 224.322 9.87653 222.234V206.181C9.87653 204.094 11.5746 202.396 13.6619 202.396H292.83C295.558 202.396 297.768 200.185 297.768 197.458C297.768 194.73 295.558 192.519 292.83 192.519H288.096C290.654 188.827 292.157 184.353 292.157 179.532C292.157 170.065 286.375 161.924 278.157 158.456C285.934 152.004 290.893 142.272 290.893 131.402C290.893 117.253 282.484 105.04 270.406 99.4738C286.708 90.4071 297.768 73.0086 297.768 53.0679C297.768 23.8064 273.962 0 244.7 0H120.122C117.394 0 115.184 2.21103 115.184 4.93826C115.184 7.6655 117.394 9.87653 120.122 9.87653H244.701C268.516 9.87653 287.892 29.2523 287.892 53.0686C287.892 76.8842 268.516 96.2599 244.701 96.2599H69.168C62.0068 96.2599 56.1803 90.4335 56.1803 83.2723C56.1803 76.1112 62.0068 70.2847 69.168 70.2847H231.195C242.178 70.2847 251.112 61.3497 251.112 50.367C251.112 39.3843 242.178 30.4493 231.195 30.4493H83.6127C80.8848 30.4493 78.6744 32.6604 78.6744 35.3876C78.6744 38.1148 80.8848 40.3259 83.6127 40.3259H231.195C236.731 40.3259 241.236 44.8302 241.236 50.367C241.236 55.9038 236.731 60.4081 231.195 60.4081H82.7093C68.7782 60.4081 57.4439 49.0738 57.4439 35.1427C57.4439 21.2108 68.7782 9.87653 82.7093 9.87653H99.0761C101.804 9.87653 104.014 7.6655 104.014 4.93826C104.014 2.21103 101.804 0 99.0761 0H82.7093C63.3316 0 47.5673 15.7649 47.5673 35.1427C47.5673 46.0115 52.5286 55.7451 60.3041 62.1965C52.0862 65.6657 46.3038 73.806 46.3038 83.2723C46.3038 94.0463 53.7968 103.098 63.8439 105.504C62.6488 106.32 61.484 107.183 60.3555 108.099C51.0906 115.619 44.5642 126.142 41.9785 137.73C41.3853 140.392 43.0617 143.031 45.7237 143.626C48.3845 144.218 51.0248 142.543 51.6187 139.881C53.7211 130.455 59.0353 121.891 66.5803 115.767C74.232 109.556 83.8847 106.136 93.7605 106.136H255.751C269.683 106.136 281.017 117.471 281.017 131.402C281.017 145.334 269.683 156.668 255.751 156.668H107.266C101.73 156.668 97.2259 152.164 97.2259 146.627C97.2259 141.09 101.73 136.586 107.266 136.586H254.849C257.577 136.586 259.787 134.375 259.787 131.648C259.787 128.92 257.577 126.709 254.849 126.709H107.266C96.2836 126.709 87.3493 135.644 87.3493 146.627C87.3493 157.61 96.2836 166.545 107.266 166.545H255.752H269.293C276.455 166.545 282.281 172.371 282.281 179.532C282.281 186.693 276.455 192.52 269.293 192.52H93.7605C83.8847 192.52 74.232 189.1 66.5803 182.89C59.0353 176.766 53.7217 168.202 51.6187 158.775C51.0248 156.114 48.3845 154.436 45.7237 155.031C43.0617 155.624 41.3853 158.263 41.9785 160.926C44.5642 172.514 51.0906 183.037 60.3555 190.557C61.1996 191.243 62.07 191.89 62.9523 192.519H13.6619C6.12872 192.519 0 198.647 0 206.18V222.234C0 229.767 6.12872 235.896 13.6619 235.896H33.008V255.421C33.008 262.89 39.0847 268.966 46.5527 268.966H62.4098C69.8784 268.966 75.9545 262.89 75.9545 255.421V235.896H259.873V255.421C259.873 262.89 265.949 268.966 273.417 268.966H289.274C296.743 268.966 302.819 262.89 302.819 255.421V235.896H322.165C329.698 235.896 335.827 229.767 335.827 222.234V206.18C335.828 198.647 329.699 192.519 322.166 192.519ZM66.0779 255.421C66.0779 257.444 64.4325 259.089 62.4098 259.089H46.5527C44.53 259.089 42.8845 257.443 42.8845 255.421V235.896H66.0786V255.421H66.0779ZM292.943 255.421C292.943 257.444 291.298 259.089 289.275 259.089H273.418C271.395 259.089 269.75 257.443 269.75 255.421V235.896H292.944V255.421H292.943Z" fill="#003445"/>
</svg>
